<?xml version="1.0" encoding="UTF-8"?>
<!DOCTYPE svg PUBLIC "-//W3C//DTD SVG 1.1//EN" "http://www.w3.org/Graphics/SVG/1.1/DTD/svg11.dtd">
<!-- Creator: CorelDRAW X8 -->
<svg xmlns="http://www.w3.org/2000/svg" xml:space="preserve" width="18.3444mm" height="18.3444mm" version="1.1" style="shape-rendering:geometricPrecision; text-rendering:geometricPrecision; image-rendering:optimizeQuality; fill-rule:evenodd; clip-rule:evenodd"
viewBox="0 0 1834 1834"
 xmlns:xlink="http://www.w3.org/1999/xlink">
 <defs>
  <style type="text/css">
   <![CDATA[
    .fil0 {fill:black}
    .fil1 {fill:white;fill-rule:nonzero}
   ]]>
  </style>
 </defs>
 <g id="Слой_x0020_1">
  <metadata id="CorelCorpID_0Corel-Layer"/>
  <path class="fil0" d="M917 35l0 0c485,0 882,397 882,882l0 0c0,485 -397,882 -882,882l0 0c-485,0 -882,-397 -882,-882l0 0c0,-485 397,-882 882,-882z"/>
  <path class="fil1" d="M946 663c22,-20 55,-18 75,4 19,22 17,55 -5,74l-189 169 189 169c22,19 24,53 5,74 -20,22 -53,24 -75,5l-233 -208c-2,-1 -3,-3 -5,-5 -19,-22 -18,-55 4,-74l234 -208z"/>
 </g>
</svg>
