<?xml version="1.0" encoding="UTF-8"?>
<!DOCTYPE svg PUBLIC "-//W3C//DTD SVG 1.1//EN" "http://www.w3.org/Graphics/SVG/1.1/DTD/svg11.dtd">
<!-- Creator: CorelDRAW X8 -->
<svg xmlns="http://www.w3.org/2000/svg" xml:space="preserve" width="176.389mm" height="176.389mm" version="1.1" style="shape-rendering:geometricPrecision; text-rendering:geometricPrecision; image-rendering:optimizeQuality; fill-rule:evenodd; clip-rule:evenodd"
viewBox="0 0 17639 17639"
 xmlns:xlink="http://www.w3.org/1999/xlink">
 <defs>
  <style type="text/css">
   <![CDATA[
    .fil0 {fill:#E6E6E6}
    .fil2 {fill:black;fill-rule:nonzero}
    .fil15 {fill:#182B4F;fill-rule:nonzero}
    .fil14 {fill:#666666;fill-rule:nonzero}
    .fil10 {fill:#858687;fill-rule:nonzero}
    .fil7 {fill:#CFA55B;fill-rule:nonzero}
    .fil1 {fill:#E5E5E5;fill-rule:nonzero}
    .fil12 {fill:#E8C27F;fill-rule:nonzero}
    .fil9 {fill:#E9E9E9;fill-rule:nonzero}
    .fil6 {fill:#EDD3A5;fill-rule:nonzero}
    .fil4 {fill:#EEEDEE;fill-rule:nonzero}
    .fil13 {fill:#F0DAB4;fill-rule:nonzero}
    .fil8 {fill:#F1ECF3;fill-rule:nonzero}
    .fil11 {fill:#F6F5F6;fill-rule:nonzero}
    .fil3 {fill:white;fill-rule:nonzero}
    .fil5 {fill:url(#id0);fill-rule:nonzero}
   ]]>
  </style>
  <linearGradient id="id0" gradientUnits="userSpaceOnUse" x1="5144.32" y1="9970.57" x2="12527.7" y2="6773.98">
   <stop offset="0" style="stop-opacity:1; stop-color:#E6E6E6"/>
   <stop offset="1" style="stop-opacity:1; stop-color:white"/>
  </linearGradient>
 </defs>
 <g id="Слой_x0020_1">
  <metadata id="CorelCorpID_0Corel-Layer"/>
  <g id="_2237104292048">
   <polygon class="fil0" points="1903,2574 1612,2283 1201,2695 789,2283 498,2574 909,2986 498,3397 789,3688 1201,3277 1612,3688 1903,3397 1492,2986 "/>
   <polygon class="fil0" points="14938,1389 15520,1389 15520,807 15932,807 15932,1389 16514,1389 16514,1801 15932,1801 15932,2383 15520,2383 15520,1801 14938,1801 "/>
   <path class="fil1" d="M1776 8413l-60 0c-14,251 -15,504 -2,758 90,1819 854,3499 2156,4759l38 -42c-1524,-1476 -2244,-3491 -2132,-5475zm12866 -4386l44 -36c-71,-87 -145,-174 -220,-258l-42 38c74,83 148,169 218,256zm-12376 8779l-48 30c59,95 121,191 184,284l47 -32c-63,-92 -124,-187 -183,-282zm-326 -586l-50 25c50,100 103,201 158,299l49 -27c-54,-98 -107,-198 -157,-297zm15325 -4461c327,2629 -571,5373 -2659,7307 -3444,3191 -8843,2985 -12034,-460 -613,-662 -1100,-1396 -1463,-2172l-48 44c370,783 862,1514 1468,2168 1557,1681 3674,2654 5963,2741 2288,88 4474,-721 6154,-2277 1680,-1557 2654,-3674 2741,-5963 19,-486 -3,-968 -64,-1442l-58 54zm-14197 6123l-42 37c75,84 153,167 231,248l40 -40c-78,-79 -155,-162 -229,-245zm2105 1653l-27 50c99,53 201,104 303,153l24 -51c-101,-48 -202,-100 -300,-152zm818 375c-71,-27 -142,-56 -211,-85l-22 52c79,34 160,66 241,97l-8 -64zm-1397 -717l-31 47c94,61 191,121 288,179l28 -49c-96,-57 -192,-116 -285,-177zm-547 -392l-35 44c89,70 180,138 271,203l33 -45c-91,-65 -181,-133 -269,-202zm-510 -438l-38 41c81,77 166,153 251,226l37 -43c-85,-72 -169,-148 -250,-224zm-894 -1001l-45 33c67,90 137,180 208,267l44 -36c-71,-86 -140,-175 -207,-264zm-976 -1757l-52 21c41,105 85,210 130,312l52 -23c-46,-101 -89,-206 -130,-310zm-217 -636l-55 16c32,108 67,217 103,323l53 -18c-36,-106 -70,-214 -101,-321zm55 -4652c-37,106 -72,215 -104,323l54 16c32,-107 67,-215 104,-321l-54 -18zm251 -631c-46,103 -91,208 -132,313l52 20c41,-103 86,-208 131,-310l-51 -23zm-444 1281c-28,109 -53,221 -75,331l55 11c22,-109 47,-220 74,-328l-54 -14zm749 -1886c-55,98 -108,199 -159,299l50 26c51,-100 104,-200 158,-297l-49 -28zm358 -576c-64,93 -126,189 -185,284l48 30c58,-95 120,-190 183,-282l-46 -32zm858 -1046c-78,80 -156,163 -231,247l42 38c74,-83 151,-166 229,-245l-40 -40zm495 -462c-86,73 -170,149 -253,226l39 41c81,-76 166,-152 250,-224l-36 -43zm-903 1002l-44 -36c-71,87 -142,177 -209,267l45 33c67,-89 137,-178 208,-264zm11092 10431c83,-77 164,-157 243,-237l-40 -39c-78,79 -159,158 -241,234l38 42zm-514 439c88,-69 176,-141 262,-214l-37 -43c-85,72 -172,144 -260,212l35 45zm-552 391c95,-61 189,-124 280,-189l-32 -46c-91,64 -185,128 -278,188l30 47zm1541 -1313c75,-84 149,-170 221,-257l-44 -36c-71,86 -145,172 -219,255l42 38zm-2124 1654c99,-52 199,-107 295,-164l-28 -48c-96,56 -195,111 -293,163l26 49zm-3244 818l7 56c110,-5 221,-13 331,-22l-5 -56c-110,9 -222,17 -333,22zm1329 -175l12 55c110,-25 221,-52 329,-81l-14 -54c-108,28 -218,55 -327,80zm-662 116l7 56c112,-15 224,-32 335,-51l-10 -56c-110,19 -221,37 -332,51zm1328 -237c108,-34 215,-71 321,-109l-19 -53c-105,38 -212,75 -319,108l17 54zm636 -233c104,-43 208,-90 310,-137l-24 -51c-101,47 -204,93 -307,136l21 52zm4701 -6878c3,-113 3,-227 1,-339l-57 1c3,112 3,225 0,336l56 2zm-46 676c13,-112 23,-226 31,-338l-56 -4c-8,112 -18,224 -31,335l56 7zm-105 669c22,-111 42,-223 60,-334l-56 -9c-17,111 -37,222 -60,331l56 12zm137 -2022c-7,-112 -17,-225 -29,-338l-56 6c12,112 22,225 29,335l56 -3zm-259 -1325l54 -13c-26,-109 -56,-219 -87,-327l-54 16c31,107 60,216 87,324zm-189 -645l54 -18c-37,-107 -76,-214 -117,-318l-52 20c40,104 79,210 115,316zm-78 5291c42,-105 82,-212 119,-318l-54 -19c-36,106 -76,212 -117,316l52 21zm397 -3986l56 -9c-17,-111 -37,-224 -59,-333l-55 11c22,109 41,220 58,331zm-676 4604c51,-101 100,-204 146,-306l-51 -23c-46,102 -95,204 -145,303l50 26zm-332 591c59,-96 117,-194 172,-292l-49 -28c-55,98 -112,195 -171,290l48 30zm-383 559c67,-90 134,-183 197,-276l-46 -32c-63,93 -129,185 -196,274l45 34zm528 -8287l49 -27c-54,-99 -112,-197 -170,-292l-48 29c58,95 115,192 169,290zm-351 -572l46 -31c-62,-93 -128,-186 -195,-276l-46 34c67,89 132,181 195,273zm650 1174l52 -23c-46,-103 -94,-206 -144,-307l-51 25c50,100 98,203 143,305zm390 5276c33,-108 63,-218 90,-327l-54 -14c-28,108 -58,218 -90,325l54 16zm-1007 -5588c-71,-132 -147,-261 -227,-389l-42 46c71,113 137,227 201,343l68 0zm-14767 3495c-27,-2324 889,-4650 2723,-6350 1835,-1699 4225,-2435 6539,-2231l62 -57c-161,-15 -323,-26 -486,-33 -2289,-87 -4474,722 -6155,2278 -1680,1557 -2653,3674 -2741,5963 -6,163 -7,325 -4,487l62 -57zm2321 -3495c260,-475 579,-927 958,-1345 2559,-2826 6902,-3096 9790,-650l38 -42c-1382,-1172 -3130,-1766 -4948,-1676 -1898,94 -3646,921 -4922,2330 -386,426 -714,890 -983,1383l67 0zm7474 -4085l10 -55c-111,-20 -223,-38 -335,-53l-7 55c110,15 222,33 332,53zm657 150l15 -54c-108,-30 -219,-58 -329,-83l-13 55c109,25 219,52 327,82zm641 208l20 -53c-106,-39 -214,-77 -321,-112l-17 54c106,34 213,72 318,111zm-1964 -448l5 -57c-112,-10 -226,-17 -338,-23l-3 57c112,5 225,13 336,23zm-1694 36l16 -3c111,-14 224,-26 334,-36l-4 -56c-112,10 -225,22 -337,37l-17 2 8 56zm1022 -67l0 -57c-112,0 -226,2 -339,7l3 56c112,-4 225,-7 336,-6zm-1355 118l-9 -56c-100,18 -201,38 -300,60l7 56c100,-22 202,-42 302,-60zm-3154 1277c-76,54 -150,110 -223,167l34 44c65,-50 131,-99 197,-147l-8 -64zm11913 1904l46 -43c-311,-527 -681,-1025 -1107,-1484 -605,-654 -1296,-1201 -2049,-1630l-48 44c746,422 1441,964 2054,1626 430,463 797,963 1104,1487zm-248 3893l-60 0c105,1823 -491,3686 -1811,5144 -2163,2389 -5601,2951 -8357,1590l-42 46c1079,538 2283,793 3519,732 1898,-94 3646,-921 4922,-2330 1275,-1408 1926,-3229 1832,-5127 -1,-19 -2,-37 -3,-55z"/>
   <path class="fil2" d="M13013 13508c0,86 -71,157 -157,157l-8057 0c-86,0 -157,-71 -157,-157l0 -10271c0,-86 71,-157 157,-157l8057 0c86,0 157,71 157,157l0 10271z"/>
   <polygon class="fil3" points="5014,13181 12651,13181 12651,3509 5014,3509 "/>
   <polygon class="fil4" points="11115,3509 4991,3509 4991,12094 12681,12094 12681,5075 "/>
   <polygon class="fil5" points="11115,3509 4991,3509 4991,13236 12681,13236 12681,5075 11115,5075 "/>
   <polygon class="fil6" points="4983,3960 11106,3960 11106,3509 4983,3509 "/>
   <polygon class="fil7" points="7235,2839 7235,4247 7912,4247 7912,4120 9712,4121 9712,4247 10402,4247 10402,2839 "/>
   <path class="fil8" d="M8471 2017l-457 2146 97 0 469 -2203 -36 -15c-278,-113 -458,-379 -458,-678 0,-404 329,-732 733,-732 403,0 732,328 732,732 0,301 -182,568 -463,680l-37 15 471 2201 97 0 -458 -2144c296,-134 485,-425 485,-752 0,-456 -371,-827 -827,-827 -457,0 -828,371 -828,827 0,325 187,615 480,750z"/>
   <polygon class="fil6" points="6222,9564 6721,9564 6721,8933 6222,8933 "/>
   <polygon class="fil7" points="6859,9564 7359,9564 7359,8435 6859,8435 "/>
   <polygon class="fil6" points="7520,9564 8020,9564 8020,7856 7520,7856 "/>
   <polygon class="fil7" points="8166,9564 8665,9564 8665,8138 8166,8138 "/>
   <polygon class="fil6" points="8786,9564 9285,9564 9285,7776 8786,7776 "/>
   <polygon class="fil7" points="9423,9564 9923,9564 9923,7275 9423,7275 "/>
   <polygon class="fil6" points="10084,9564 10584,9564 10584,6100 10084,6100 "/>
   <polygon class="fil7" points="10730,9564 11229,9564 11229,6673 10730,6673 "/>
   <polygon class="fil2" points="9990,11913 6156,11913 6156,11577 11295,11577 11295,11913 "/>
   <polygon class="fil2" points="8903,11303 6156,11303 6156,10967 11295,10967 11295,11303 "/>
   <path class="fil9" d="M12736 11511c0,0 27,-294 -128,-520 -155,-226 121,-519 301,-327 179,192 527,215 527,215l-700 632z"/>
   <path class="fil10" d="M12900 10655c-38,-37 -81,-53 -122,-53 -37,0 -73,13 -105,35l0 -2815c128,105 242,226 340,359l0 2334c-35,48 -73,95 -113,140z"/>
   <path class="fil11" d="M11422 11322c-22,0 -44,0 -66,-1 -72,-2 -142,-8 -212,-18l151 0 0 -336 -1004 0c-456,-319 -770,-825 -833,-1403l465 0 0 -1501c50,-59 104,-115 161,-168l0 1669 500 0 0 -2004c48,-22 96,-43 146,-61l0 2065 499 0 0 -2181c63,-6 126,-9 191,-9 22,0 44,0 66,1 451,15 863,181 1187,447l0 2815c-88,59 -142,187 -91,308 -326,237 -728,377 -1160,377z"/>
   <path class="fil12" d="M9923 9564l-465 0c-10,-92 -13,-186 -10,-281 15,-467 192,-891 475,-1220l0 1501z"/>
   <path class="fil13" d="M10584 9564l-500 0 0 -1669c148,-136 316,-249 500,-335l0 2004z"/>
   <path class="fil12" d="M11229 9564l-499 0 0 -2065c158,-60 325,-99 499,-116l0 2181z"/>
   <path class="fil14" d="M11295 11303l-151 0c-315,-44 -605,-162 -853,-336l1004 0 0 336z"/>
   <path class="fil9" d="M9565 9287c-32,1025 770,1881 1794,1916 454,15 875,-135 1207,-395 11,-71 53,-134 107,-171 32,-22 68,-35 105,-35 3,0 6,0 10,0 289,-315 472,-731 488,-1193 32,-1024 -770,-1880 -1794,-1916 -1025,-32 -1881,769 -1917,1794zm-235 -8c38,-1155 1005,-2060 2160,-2022 1154,39 2060,1006 2021,2160 -38,1155 -1005,2060 -2159,2022 -1155,-38 -2060,-1005 -2022,-2160z"/>
   <polygon class="fil15" points="13709,11180 13710,11179 13436,10879 12736,11511 13246,12073 13246,12073 15264,14298 15964,13666 "/>
   <polygon class="fil15" points="6347,14015 1909,14016 1908,7570 6346,7570 "/>
   <path class="fil3" d="M2883 10237l-600 0 0 -600 600 0 0 600zm2880 -826c0,57 -46,102 -102,102 -56,0 -102,-45 -102,-101 0,-57 46,-102 102,-102 56,0 102,45 102,101zm266 -279l-3804 0 0 -1116 3804 -1 0 1117zm-657 2647l0 1671 601 0 -1 -1671 -600 0zm600 -471l-600 0 0 -600 600 0 0 600zm0 -1071l-600 0 0 -600 600 0 0 600zm-1029 3214l-600 0 0 -601 600 0 0 601zm0 -1072l-600 0 0 -600 600 0 0 600zm0 -1071l-601 0 0 -600 601 0 0 600zm-1 -1855l-600 0 0 -82 600 0 0 82zm-1029 0l-600 0 0 -82 600 0 0 82zm-1030 0l-600 0 0 -82 600 0 0 82zm2060 784l-601 0 0 -600 601 0 0 600zm-1030 3214l-600 0 0 -601 600 0 0 601zm0 -1072l-600 1 0 -601 600 0 0 600zm0 -1071l-600 0 0 -600 600 0 0 600zm0 -1071l-600 0 0 -600 600 0 0 600zm-1029 3214l-600 0 0 -600 600 -1 0 601zm-1 -1071l-599 0 -1 -601 600 0 0 601zm0 -1072l-600 0 0 -600 600 0 0 600z"/>
  </g>
 </g>
</svg>
