<?xml version="1.0" encoding="UTF-8"?>
<!DOCTYPE svg PUBLIC "-//W3C//DTD SVG 1.1//EN" "http://www.w3.org/Graphics/SVG/1.1/DTD/svg11.dtd">
<!-- Creator: CorelDRAW X8 -->
<svg xmlns="http://www.w3.org/2000/svg" xml:space="preserve" width="21.1666mm" height="21.1666mm" version="1.1" style="shape-rendering:geometricPrecision; text-rendering:geometricPrecision; image-rendering:optimizeQuality; fill-rule:evenodd; clip-rule:evenodd"
viewBox="0 0 2117 2117"
 xmlns:xlink="http://www.w3.org/1999/xlink">
 <defs>
  <style type="text/css">
   <![CDATA[
    .fil0 {fill:black}
   ]]>
  </style>
 </defs>
 <g id="Слой_x0020_1">
  <metadata id="CorelCorpID_0Corel-Layer"/>
  <path class="fil0" d="M266 653c10,13 25,21 41,21 11,0 22,-4 31,-10l135 -99 50 69c-161,149 -253,358 -253,578 0,158 48,312 137,443 -10,29 -49,134 -82,222 -4,10 -6,21 -6,32 0,52 42,95 94,95l123 0c0,0 0,0 0,0 27,0 53,-11 73,-30l71 -71c115,63 246,97 378,97 132,0 263,-34 379,-97l71 71c19,19 45,30 72,30 1,0 1,0 1,0l122 0c52,0 95,-43 95,-95 0,-11 -2,-22 -6,-33 -33,-87 -72,-193 -82,-221 89,-131 136,-286 136,-443 0,-220 -91,-430 -253,-579l51 -68 134 98c9,7 20,10 31,10 17,0 32,-7 42,-21l0 0c38,-51 58,-113 58,-177 0,-100 -50,-194 -134,-249 -49,-32 -106,-48 -164,-48 -98,0 -190,47 -247,127l0 0c-6,7 -8,16 -8,24 0,14 6,27 17,35l142 104 -50 68c-95,-57 -201,-94 -311,-107l0 -118 28 0c55,0 99,-44 99,-99 0,-55 -44,-99 -99,-99l-248 0c-55,0 -99,44 -99,99 0,55 44,99 99,99l29 0 0 118c-110,14 -216,50 -311,107l-50 -67 141 -104c11,-8 17,-21 17,-34 0,-9 -2,-18 -8,-25 -57,-80 -149,-127 -247,-127 -58,0 -116,17 -165,48 -83,56 -132,149 -132,249 0,63 20,125 58,177l0 0zm329 558l463 0 0 -463 0 0c256,0 463,207 463,463 0,256 -207,463 -463,463 -255,0 -463,-207 -463,-463l0 0zm463 -618c342,0 619,277 619,618 0,342 -277,619 -619,619 -341,0 -618,-277 -618,-619 0,-341 277,-618 618,-618l0 0z"/>
 </g>
</svg>
