<?xml version="1.0" encoding="UTF-8"?>
<!DOCTYPE svg PUBLIC "-//W3C//DTD SVG 1.1//EN" "http://www.w3.org/Graphics/SVG/1.1/DTD/svg11.dtd">
<!-- Creator: CorelDRAW X8 -->
<svg xmlns="http://www.w3.org/2000/svg" xml:space="preserve" width="25.3998mm" height="21.1666mm" version="1.1" style="shape-rendering:geometricPrecision; text-rendering:geometricPrecision; image-rendering:optimizeQuality; fill-rule:evenodd; clip-rule:evenodd"
viewBox="0 0 2540 2117"
 xmlns:xlink="http://www.w3.org/1999/xlink">
 <defs>
  <style type="text/css">
   <![CDATA[
    .fil0 {fill:black}
   ]]>
  </style>
 </defs>
 <g id="Слой_x0020_1">
  <metadata id="CorelCorpID_0Corel-Layer"/>
  <path class="fil0" d="M744 323c58,-186 112,-210 153,-210 36,0 79,19 128,42 69,32 148,68 245,68 97,0 176,-36 245,-68 49,-23 92,-42 128,-42 41,0 95,24 153,210 95,307 207,505 265,597l34 49c0,1 1,2 1,3 -22,197 -675,239 -826,239 -178,0 -804,-42 -826,-239 11,-18 23,-35 35,-52 58,-91 171,-290 265,-597zm1343 1150c-464,123 -1170,123 -1634,0 -112,-30 -392,-119 -392,-249 0,-83 126,-169 339,-233 56,223 679,267 870,267 190,0 814,-43 870,-267 213,64 339,150 339,233 0,130 -280,219 -392,249zm-105 72c-424,89 -1000,89 -1424,0 -30,-6 -59,-13 -87,-20l0 177c24,40 194,302 441,302 88,0 179,-34 268,-100 5,-4 52,-39 90,-39 38,0 85,35 90,39 89,66 180,100 268,100 247,0 417,-262 441,-302l0 -177c-28,7 -57,14 -87,20zm-900 269c-5,18 -53,38 -167,36 -171,-4 -236,-119 -257,-171 28,-3 56,-5 83,-5 189,0 300,81 301,81 28,22 45,46 40,59zm543 36c-114,2 -162,-18 -167,-36 -5,-13 12,-37 40,-59 1,0 112,-81 301,-81 27,0 54,2 82,5 -21,52 -87,167 -256,171z"/>
 </g>
</svg>
