<?xml version="1.0" encoding="UTF-8"?>
<!DOCTYPE svg PUBLIC "-//W3C//DTD SVG 1.1//EN" "http://www.w3.org/Graphics/SVG/1.1/DTD/svg11.dtd">
<!-- Creator: CorelDRAW X8 -->
<svg xmlns="http://www.w3.org/2000/svg" xml:space="preserve" width="21.1666mm" height="21.1666mm" version="1.1" style="shape-rendering:geometricPrecision; text-rendering:geometricPrecision; image-rendering:optimizeQuality; fill-rule:evenodd; clip-rule:evenodd"
viewBox="0 0 2117 2117"
 xmlns:xlink="http://www.w3.org/1999/xlink">
 <defs>
  <style type="text/css">
   <![CDATA[
    .fil0 {fill:black}
   ]]>
  </style>
 </defs>
 <g id="Слой_x0020_1">
  <metadata id="CorelCorpID_0Corel-Layer"/>
  <path class="fil0" d="M1693 1488l-237 306c-3,3 -6,6 -10,9 -22,17 -54,13 -71,-9l-119 -153c-17,-22 -13,-54 9,-71 22,-17 54,-13 71,9l79 101 198 -254c17,-22 49,-26 71,-9 22,17 26,49 9,71zm-923 -1051l0 57 678 0 0 -57 -678 0zm-169 113c47,0 85,-38 85,-84 0,-47 -38,-85 -85,-85 -47,0 -85,38 -85,85 0,46 38,84 85,84zm0 283c47,0 85,-38 85,-85 0,-47 -38,-85 -85,-85 -47,0 -85,38 -85,85 0,47 38,85 85,85zm169 -57l678 0 0 -56 -678 0 0 56zm0 282l665 0 13 0 0 -56 -678 0 0 56zm-169 57c47,0 85,-38 85,-85 0,-47 -38,-85 -85,-85 -47,0 -85,38 -85,85 0,47 38,85 85,85zm169 226l221 0c11,-20 24,-39 37,-57l-258 0 0 57zm-169 56c47,0 85,-38 85,-85 0,-46 -38,-84 -85,-84 -47,0 -85,38 -85,84 0,47 38,85 85,85zm500 621c-48,-44 -89,-97 -119,-156l-513 0c-23,0 -43,-9 -58,-24 -15,-16 -24,-37 -24,-59l0 -1441c0,-23 9,-44 24,-59 15,-15 35,-25 58,-25l1055 0c22,0 43,10 58,25l3 3c13,15 21,34 21,56l0 735c54,13 105,34 152,62l0 -797c0,-63 -24,-121 -64,-164l-5 -5c-42,-43 -101,-70 -165,-70l-1055 0c-65,0 -123,27 -166,70 -42,43 -69,103 -69,169l0 1441c0,65 27,125 69,169 43,43 101,70 166,70l632 0zm374 -816c-226,0 -408,183 -408,408 0,225 182,408 408,408 225,0 407,-183 407,-408 0,-225 -182,-408 -407,-408z"/>
 </g>
</svg>
