<?xml version="1.0" encoding="UTF-8"?>
<!DOCTYPE svg PUBLIC "-//W3C//DTD SVG 1.1//EN" "http://www.w3.org/Graphics/SVG/1.1/DTD/svg11.dtd">
<!-- Creator: CorelDRAW X8 -->
<svg xmlns="http://www.w3.org/2000/svg" xml:space="preserve" width="21.1666mm" height="21.1666mm" version="1.1" style="shape-rendering:geometricPrecision; text-rendering:geometricPrecision; image-rendering:optimizeQuality; fill-rule:evenodd; clip-rule:evenodd"
viewBox="0 0 2117 2117"
 xmlns:xlink="http://www.w3.org/1999/xlink">
 <defs>
  <style type="text/css">
   <![CDATA[
    .fil0 {fill:black}
   ]]>
  </style>
 </defs>
 <g id="Слой_x0020_1">
  <metadata id="CorelCorpID_0Corel-Layer"/>
  <path class="fil0" d="M1090 1014c0,0 37,-101 28,-101 -10,0 -69,-88 -69,-88l54 -85 3 8 66 -29 86 35 18 -16c4,25 6,50 6,75 0,26 -1,51 -5,74 -4,25 -10,49 -18,72l0 0c-31,93 -91,172 -168,228 -12,8 -24,16 -36,23l-45 -8 -17 -156 97 -32zm159 -405l-108 47c-14,-30 -34,-59 -59,-84l84 -84c36,36 63,77 83,121zm-700 -154l83 83c115,-115 302,-114 417,0l83 -83c-160,-161 -422,-161 -583,0l0 0zm959 182c-15,-58 -37,-114 -66,-165 -120,-218 -353,-366 -619,-366 -391,0 -708,316 -708,707 0,391 317,707 708,707 390,0 707,-316 707,-707 0,-61 -8,-120 -22,-176zm-685 707c-293,0 -531,-238 -531,-531 0,-292 238,-530 531,-530 81,0 158,18 227,51 179,85 303,268 303,479 0,59 -9,115 -27,168 -71,211 -270,363 -503,363zm1127 346l-462 -469c-64,100 -149,185 -250,250l461 469c70,69 182,69 251,0 69,-69 69,-181 0,-250l0 0zm-361 -1010l9 2 105 -58 114 78 -32 107 32 65 124 26 27 156 -115 52 -10 74 62 91 -91 132 -81 -31 -144 -145c67,-36 112,-104 112,-183 0,-75 -41,-140 -103,-178 2,-18 2,-36 2,-55 0,-33 -2,-66 -6,-98l0 0c-1,-12 -3,-23 -5,-35zm-720 -104l88 103 -54 90 41 58 94 56 -27 121 -99 25 -27 62 39 95 -97 87 -4 0c-4,0 -7,0 -10,0l-73 -44 -68 19c-66,-23 -126,-61 -174,-110 -84,-83 -135,-198 -135,-325 0,-82 21,-159 59,-226l14 11 73 -12 18 -53 56 55 49 50 50 -50c7,-6 14,-13 21,-18 1,7 1,12 0,13 -6,7 75,36 75,36l91 -43zm-157 184c-81,-69 -205,-57 -277,27 -72,84 -65,207 16,276 81,69 205,56 277,-28 72,-83 65,-207 -16,-275zm531 978l-44 106 -90 -7 -29 53 -7 92 -103 25 -57 -65 -57 3 -59 66 -109 -43 7 -80 -40 -45 -95 12 -43 -116 63 -56 7 -58 -76 -60 14 -33c62,26 127,43 195,52 -3,8 -5,15 -7,23 -22,87 34,176 126,199 91,22 183,-30 204,-117 11,-44 3,-88 -20,-124 51,-14 100,-32 146,-55l63 62c-18,16 -51,45 -57,43 -7,-1 1,70 1,70l67 53z"/>
 </g>
</svg>
