<?xml version="1.0" encoding="UTF-8"?>
<!DOCTYPE svg PUBLIC "-//W3C//DTD SVG 1.1//EN" "http://www.w3.org/Graphics/SVG/1.1/DTD/svg11.dtd">
<!-- Creator: CorelDRAW X8 -->
<svg xmlns="http://www.w3.org/2000/svg" xml:space="preserve" width="23.2832mm" height="21.1666mm" version="1.1" style="shape-rendering:geometricPrecision; text-rendering:geometricPrecision; image-rendering:optimizeQuality; fill-rule:evenodd; clip-rule:evenodd"
viewBox="0 0 2328 2117"
 xmlns:xlink="http://www.w3.org/1999/xlink">
 <defs>
  <style type="text/css">
   <![CDATA[
    .fil0 {fill:black}
   ]]>
  </style>
 </defs>
 <g id="Слой_x0020_1">
  <metadata id="CorelCorpID_0Corel-Layer"/>
  <path class="fil0" d="M1365 1020c103,-83 234,-132 377,-132 151,0 289,55 396,149l0 -516c0,-67 -52,-119 -119,-119l-461 0 0 -71c0,-122 -98,-218 -217,-218l-477 0c-122,0 -218,98 -218,218l0 71 -456 0c-66,0 -119,52 -119,119l0 1297c0,67 53,119 119,119l1146 0c-107,-98 -178,-232 -194,-383l-39 -24 -377 234 106 -431 -339 -287 442 -33 168 -411 168 411 94 7zm377 -48c-284,0 -516,232 -516,516 0,284 232,516 516,516 284,0 515,-232 515,-516 3,-284 -229,-516 -515,-516zm59 782l-119 0 0 -110 119 0 0 110zm0 -190l-119 0 0 -337 119 0 0 337zm-1020 -1233c0,-46 39,-85 85,-85l475 0c45,0 84,39 84,85l0 71 -644 0 0 -71z"/>
 </g>
</svg>
