<?xml version="1.0" encoding="UTF-8"?>
<!DOCTYPE svg PUBLIC "-//W3C//DTD SVG 1.1//EN" "http://www.w3.org/Graphics/SVG/1.1/DTD/svg11.dtd">
<!-- Creator: CorelDRAW X8 -->
<svg xmlns="http://www.w3.org/2000/svg" xml:space="preserve" width="21.1666mm" height="21.1666mm" version="1.1" style="shape-rendering:geometricPrecision; text-rendering:geometricPrecision; image-rendering:optimizeQuality; fill-rule:evenodd; clip-rule:evenodd"
viewBox="0 0 2117 2117"
 xmlns:xlink="http://www.w3.org/1999/xlink">
 <defs>
  <style type="text/css">
   <![CDATA[
    .fil0 {fill:black}
   ]]>
  </style>
 </defs>
 <g id="Слой_x0020_1">
  <metadata id="CorelCorpID_0Corel-Layer"/>
  <path class="fil0" d="M1058 113c-417,0 -755,338 -755,756 0,208 92,389 221,534l534 601 535 -601c128,-145 221,-326 221,-534 0,-418 -338,-756 -756,-756zm-158 599c20,5 11,-22 -1,-9 -3,3 -2,8 1,9zm689 150c-1,-10 -18,-8 -12,-17 13,-19 -14,-14 -10,-28 0,0 4,3 5,0 3,-10 -12,-7 -16,-13 -7,-10 -10,-6 -11,-2 -2,3 -17,-25 -17,-29 0,-1 0,2 5,1 2,-1 -3,-3 -2,-4 1,-1 4,0 4,-2 1,-6 -1,-3 -2,-12 -1,-3 7,10 7,7 4,-14 -1,-18 14,-31 8,-7 -9,-24 -11,-34 0,-3 0,-6 0,-9 0,0 1,0 1,0 0,-3 -1,0 -1,-3 0,-9 -4,-18 6,-27 2,-1 0,-5 -2,-6 -3,-1 -30,2 -31,1 -1,-1 3,-8 2,-12 -3,-10 -1,-9 -8,-12 -6,-3 -5,4 -10,2 -2,-1 -3,-4 -4,-6 0,-1 1,-1 1,-1 1,-2 -2,-4 0,-4 11,0 5,14 14,4 17,-19 8,0 24,-24 1,-1 1,-1 1,-1 -1,-3 -6,-2 -6,-5 -3,-7 -6,0 -12,-3 -7,-5 3,-1 4,-10 0,-1 -5,1 -5,-1 1,-3 4,-1 4,-3 -1,-3 -3,-5 -5,-5 -8,-1 -22,6 -20,20 1,4 11,-1 12,1 1,2 -32,9 -42,15 -26,15 -33,31 -45,45 -4,3 1,6 5,8 7,3 5,-4 11,1 1,1 1,6 -1,6 -2,0 -10,2 -10,1 2,-5 3,-5 0,-8 -5,-4 -13,2 -10,9 4,7 -2,11 -3,15 -1,0 -3,-1 -3,0 -22,33 -16,-6 -50,33 -6,7 -6,4 -17,0 -11,-5 -35,3 -44,11 -4,3 5,1 3,5 -2,5 -5,-1 -4,7 0,1 5,-4 4,0 -3,8 8,2 4,9 -3,4 -14,7 -20,12 -6,5 -5,-6 -10,-5 -4,1 4,46 -15,1 -7,-19 -16,-14 -29,-13 -7,0 3,10 -1,15 -3,5 -15,6 -18,1 -5,-8 -14,-2 -21,-1 -3,0 -5,-4 -4,-6 1,-2 3,-3 1,-7 0,-1 -5,-2 -6,-1 -2,2 -2,4 -4,6 0,0 -1,1 0,1 4,0 10,1 6,5 -1,1 1,-1 -3,-3 -2,-1 -1,-1 -5,2 -2,1 0,4 -1,6 -2,1 -9,6 -13,4 -2,0 10,-8 13,-11 4,-6 3,-13 9,-14 26,-4 -20,-48 -19,-22 0,0 -1,1 -1,0 -4,-5 -3,-2 -7,-9 -1,-4 6,-1 5,-3 -1,-4 -6,-8 -10,-6 -8,4 -7,6 -10,18 -1,2 -7,-3 -8,0 -2,4 -2,8 -7,5 -3,-2 6,-4 2,-5 -16,-3 -32,7 -48,13 -3,1 2,1 1,3 -1,1 -5,-2 -5,0 2,8 4,2 3,7 -1,1 4,-2 4,0 -1,6 -1,4 -6,5 -3,0 1,-2 -3,-3 -3,-1 -13,-6 -18,-2 -7,4 -6,11 -4,18 1,3 9,3 3,9 -2,2 -8,-17 -13,-20 -6,-3 -4,-1 -7,3 -2,2 5,5 0,6 -4,0 -1,-6 -5,-2 -5,3 4,8 0,11 -3,3 -5,0 -6,-4 -1,-7 14,-33 7,-26 -12,10 -8,6 -17,18 -10,13 -23,25 -13,33 15,12 16,13 13,18 -1,3 1,-4 -5,-9 -5,-4 -8,-3 -11,2 -5,7 -8,9 -12,14 -3,4 -10,7 -14,4 -10,-7 -15,-5 -7,-8 11,-4 18,-18 23,-21 5,-3 14,-35 21,-37 8,-2 20,-11 7,-20 0,0 0,-1 0,-1 1,1 6,4 7,0 6,-16 -43,17 -38,20 4,2 -1,6 -5,7 -4,2 -8,5 -7,8 0,2 3,-2 4,0 2,4 -2,5 0,12 1,2 -5,6 -5,4 -4,-9 -8,-27 -13,-34 -2,-4 -1,-1 -2,-3 -4,-5 1,-14 -5,-17 -8,-5 -1,20 -9,24 -7,3 -1,-7 -4,-8 -52,-22 11,-18 -44,-27 -7,-1 -4,-5 -7,-4 -5,1 -2,-3 -6,-1 -13,6 -13,4 -15,-1 -1,-4 -1,-8 3,-9 9,-4 6,6 12,4 8,-5 7,-20 -2,-25 -2,-1 -2,7 -5,9 -6,6 -19,18 -23,15 -1,-2 2,-9 -3,-11 -9,-3 -14,-9 -22,-5 -3,1 -2,5 -5,7 0,1 -5,0 -5,-1 0,-6 3,-13 0,-18 -1,-3 -4,-4 -7,-2 -5,4 -1,10 -3,12 -7,10 -7,-5 -4,-11 1,-1 -3,-5 -1,-6 12,-9 29,-43 27,-26 -7,63 51,54 39,-8 -2,-8 2,-3 3,-7 5,-16 -18,-25 -31,-20 -4,2 -1,12 -6,13 -9,3 -40,14 -49,21 -8,8 -5,11 -16,15 -17,6 -33,-24 -45,-14 -1,0 1,18 0,17 -7,-5 -1,-8 -7,-10 -13,-5 -26,0 -37,5 -7,3 -15,10 -20,15 -3,3 1,7 2,11 1,1 -3,2 -3,4 4,8 -14,21 -19,30 -4,6 0,0 1,3 1,2 -1,8 -4,7 -13,-4 0,-13 -17,-3 -2,2 -6,3 -4,7 2,5 8,4 9,8 5,13 -31,17 -7,52 2,2 -2,5 -3,8 0,1 9,20 4,22 -1,0 0,3 -1,3 -5,0 -2,-4 -6,-3 -10,4 -3,3 -7,7 -1,3 -5,6 -8,4 -7,-6 -13,-17 -19,-8 -6,8 10,6 6,10 -3,4 -12,-2 -14,-7 0,-2 -1,-3 -1,-3 0,-1 -2,0 -2,1 -1,1 2,2 -2,7 -4,4 -13,2 -16,-1 -2,-1 -11,-12 -11,-16 1,-11 8,-15 3,-26 -1,-3 -17,-11 -20,-7 -6,8 -1,7 -8,17 -4,7 8,15 17,22 5,3 7,8 7,8 0,3 1,6 1,9 -1,14 -8,27 0,38 6,8 13,18 17,28 5,13 13,21 12,34 -1,10 -2,45 16,34 8,-5 6,-20 10,-27 2,-3 9,-2 10,-5 1,-1 -4,-1 -3,-2 1,-5 -1,-8 2,-11 2,-2 4,3 6,2 7,-5 15,-6 17,-3 4,6 -3,3 2,6 6,2 8,1 11,-1 6,-3 0,-4 2,-11 1,-4 -1,4 3,4 4,-1 9,-14 7,-22 0,-2 -7,-4 -5,-5 4,-5 4,-5 2,-9 -2,-5 8,-2 12,-5 4,-3 15,-13 17,-9 7,12 -4,12 10,7 7,-2 24,1 28,6 2,3 8,9 12,17 4,10 -7,13 -2,20 2,3 8,6 8,7 21,8 23,18 28,26 6,8 30,11 24,-5 -1,-3 -3,0 -5,-5 -3,-8 3,1 11,-5 10,-7 17,5 11,-11 -1,-1 4,1 4,0 0,-6 -4,0 -2,-5 1,-2 2,-4 4,-2 9,9 49,25 63,21 6,-2 8,4 13,9 3,3 -5,8 -5,12 0,6 5,5 9,9 1,1 -2,3 -1,3 4,2 2,0 5,-1 3,0 2,6 1,7 -3,3 -6,0 -3,3 13,16 23,-6 29,2 12,17 6,38 12,60 1,3 6,-5 8,-4 10,6 2,9 20,11 8,1 8,10 11,18 4,9 22,23 29,19 11,-6 45,-16 57,-6 0,0 22,23 35,12 8,-6 -2,-14 5,-21 5,-6 2,-9 6,-7 50,27 0,-3 32,27 12,11 27,-6 39,3 4,3 8,-2 9,3 5,23 45,4 59,-9 5,-5 27,16 49,-7 5,-5 -2,-20 6,-29 3,-3 -10,-5 -7,-11 21,-51 63,5 68,11 9,10 24,13 39,15 32,4 -8,-16 12,-14 12,2 9,-1 22,-2 3,-1 3,5 5,9 9,12 7,33 5,47 -1,4 -9,-1 -13,2 -4,4 -9,8 -6,12 9,9 11,21 6,30 -1,3 2,7 4,7 5,-1 5,-10 8,-13 1,-2 1,-2 5,-6 2,-2 1,5 3,5 36,-12 47,-104 30,-134 -6,-11 -9,-20 -10,-33 0,-5 5,1 9,7 7,8 38,75 45,71 6,-3 -3,-9 -2,-14 1,-3 3,-2 6,-1 7,3 7,10 8,5 2,-19 -12,-11 -21,-19 -5,-5 -9,-13 -8,-20 1,-12 16,3 18,-3 1,-6 -29,-23 -34,-27 -9,-8 -19,-26 -29,-34 -2,-1 -4,2 -4,4 1,2 6,1 6,3 2,6 1,11 0,12 -1,0 -1,1 -1,1 2,1 8,8 5,12 -4,5 0,-3 -7,-6 -2,-2 1,-4 1,-5 0,-1 0,-1 0,-1 0,0 0,1 0,0 -7,-5 -29,-5 -31,-2 -3,3 3,13 -2,14 -2,1 -2,-3 -4,-5 -1,-2 3,-6 1,-7 -5,-3 -2,2 -3,0 -3,-6 0,-15 -7,-10 -6,5 1,5 5,10 3,3 0,14 -1,12 -3,-5 3,-8 -1,-11 -5,-4 -17,11 -16,5 2,-34 13,-87 40,-104 9,-5 9,-6 11,-7 3,-2 7,3 8,0 2,-3 -6,-6 -4,-8 4,-6 3,-2 12,-4 2,0 -1,-4 1,-4 3,-1 3,-3 4,0 0,0 -5,5 -2,7 9,5 12,-14 13,-15 6,-3 14,-8 9,-12 -7,-6 -7,7 -10,1 -7,-14 -10,-34 2,-46 3,-2 9,4 5,-5 -3,-6 13,17 14,12 10,-38 -18,-36 -6,-44 8,-4 17,15 15,21 -4,19 -3,48 3,69 5,23 -8,54 76,76 24,6 -1,-36 -3,-50zm-648 -157c2,14 5,21 11,18 4,-4 10,-49 76,-36 15,4 26,-10 3,-9 -12,0 -9,-10 -22,-7 -12,2 -20,-4 -36,7 -13,8 -36,4 -32,27 0,0 0,0 0,0zm-319 -70c25,-1 3,-14 4,-20 1,-3 4,3 5,1 2,-3 -4,-7 -7,-9 -2,-1 -7,-2 -8,1 -2,8 -2,28 6,27zm668 78c-2,0 -4,1 -4,2 1,4 1,4 5,4 0,0 1,-1 1,0 1,5 -4,3 0,8 3,5 13,-3 16,-8 0,0 -13,-10 -15,-3 -1,1 -1,-2 -3,-3zm-163 -36c6,4 9,16 15,11 1,-1 1,-2 1,-2 -2,4 -3,11 -3,14 0,0 0,1 0,1 11,-1 29,-18 9,-22 -1,0 -2,1 -3,3 1,-5 0,-9 -2,-13 -1,-2 -5,1 -6,-1 -1,-2 0,-5 1,-7 1,-1 3,-1 2,-2 -4,-3 -1,-7 -5,-9 -4,-1 -7,3 -9,6 -3,7 -12,14 0,21zm305 -73c0,-3 0,-6 -1,-9 -11,-16 -7,42 1,9zm-148 104c13,-17 7,-24 -10,-20 -3,1 3,7 1,7 -23,1 -3,30 9,13zm232 618c-123,122 -285,189 -458,189 -172,0 -335,-67 -457,-189 -122,-122 -189,-285 -189,-457 0,-357 290,-647 646,-647 357,0 647,290 647,647 0,172 -67,335 -189,457z"/>
 </g>
</svg>
