<?xml version="1.0" encoding="UTF-8"?>
<!DOCTYPE svg PUBLIC "-//W3C//DTD SVG 1.1//EN" "http://www.w3.org/Graphics/SVG/1.1/DTD/svg11.dtd">
<!-- Creator: CorelDRAW X8 -->
<svg xmlns="http://www.w3.org/2000/svg" xml:space="preserve" width="21.1666mm" height="21.1666mm" version="1.1" style="shape-rendering:geometricPrecision; text-rendering:geometricPrecision; image-rendering:optimizeQuality; fill-rule:evenodd; clip-rule:evenodd"
viewBox="0 0 2117 2117"
 xmlns:xlink="http://www.w3.org/1999/xlink">
 <defs>
  <style type="text/css">
   <![CDATA[
    .fil0 {fill:black}
   ]]>
  </style>
 </defs>
 <g id="Слой_x0020_1">
  <metadata id="CorelCorpID_0Corel-Layer"/>
  <path class="fil0" d="M1431 659l-508 0c-29,0 -52,23 -52,51 0,29 23,52 52,52l508 0c29,0 52,-23 52,-52 0,-28 -23,-51 -52,-51zm256 370l0 -662c0,-143 -116,-259 -259,-259l-1092 0c-143,0 -259,116 -259,259l0 975c0,143 116,259 259,259l711 0c45,237 251,408 492,408 276,0 501,-225 501,-501 0,-220 -143,-414 -353,-479l0 0zm-1351 -817l1092 0c76,0 140,54 153,128l-1398 0c13,-74 78,-128 153,-128l0 0zm971 846l-384 0c-29,0 -52,23 -52,52 0,29 23,52 52,52l254 0c-87,90 -137,210 -139,336l-702 0c-86,0 -155,-70 -155,-156l0 -898 1403 0 0 565c-15,-2 -30,-2 -46,-2 0,0 0,0 -1,0 -76,0 -152,17 -221,51 -1,0 -3,0 -4,0 -2,0 -4,0 -5,0l0 0zm422 409l-203 207c-9,10 -23,15 -36,16l0 0c-14,-1 -27,-6 -37,-15l-103 -103c-20,-7 -34,-27 -34,-48 0,-29 23,-52 52,-52 18,0 35,10 45,26l67 65 165 -169c10,-10 23,-15 37,-15 64,0 70,67 47,88zm-1099 -488l-165 170 -68 -66c-10,-9 -22,-14 -36,-14 -28,0 -52,23 -52,52 0,13 6,26 15,36l104 102c10,10 23,15 36,15l0 0c14,0 27,-6 37,-16l202 -207c10,-9 15,-22 15,-36 0,-28 -24,-51 -52,-51 -14,0 -27,5 -37,15l1 0zm0 -399l-165 170 -68 -66c-10,-9 -22,-14 -36,-14 -28,0 -52,23 -52,51 0,14 6,27 15,37l104 102c10,9 23,15 36,15l0 0c14,0 27,-6 37,-16l202 -207c10,-10 16,-23 16,-37 0,-28 -23,-52 -52,-52 -14,0 -28,6 -38,16l1 1z"/>
 </g>
</svg>
