<?xml version="1.0" encoding="UTF-8"?>
<!DOCTYPE svg PUBLIC "-//W3C//DTD SVG 1.1//EN" "http://www.w3.org/Graphics/SVG/1.1/DTD/svg11.dtd">
<!-- Creator: CorelDRAW X8 -->
<svg xmlns="http://www.w3.org/2000/svg" xml:space="preserve" width="21.1666mm" height="21.1666mm" version="1.1" style="shape-rendering:geometricPrecision; text-rendering:geometricPrecision; image-rendering:optimizeQuality; fill-rule:evenodd; clip-rule:evenodd"
viewBox="0 0 2117 2117"
 xmlns:xlink="http://www.w3.org/1999/xlink">
 <defs>
  <style type="text/css">
   <![CDATA[
    .fil0 {fill:black}
   ]]>
  </style>
 </defs>
 <g id="Слой_x0020_1">
  <metadata id="CorelCorpID_0Corel-Layer"/>
  <path class="fil0" d="M293 1597l710 0 0 -687 -710 0 0 687zm1208 196l-80 -103c-32,-42 -55,-89 -72,-137l-33 -106c-7,-23 4,-46 25,-56 23,-11 51,-3 63,21l57 111c2,3 7,3 7,-2l0 -312c0,-27 23,-50 50,-50 28,0 51,23 51,50l0 224c8,-7 221,10 228,80 8,80 -70,282 -70,282l-226 0 0 -2zm-82 -445l0 -141c0,-55 44,-97 97,-97 55,0 97,44 97,97 0,42 0,97 2,139 44,-31 74,-82 74,-141 0,-93 -76,-171 -171,-171 -95,0 -173,78 -173,173 0,59 30,112 74,141zm-306 -438l0 689 205 0c-7,-14 -13,-29 -19,-46l-11 -36 -93 0 0 -525 547 0 0 418c33,10 63,27 82,50l0 -550 -711 0zm325 1099l365 0 0 -169 -365 0 0 169zm-1145 -1211l710 0 0 -690 -710 0 0 690zm820 -690l0 690 711 0 0 -690 -711 0z"/>
 </g>
</svg>
