<?xml version="1.0" encoding="UTF-8"?>
<!DOCTYPE svg PUBLIC "-//W3C//DTD SVG 1.1//EN" "http://www.w3.org/Graphics/SVG/1.1/DTD/svg11.dtd">
<!-- Creator: CorelDRAW X8 -->
<svg xmlns="http://www.w3.org/2000/svg" xml:space="preserve" width="21.1666mm" height="21.1666mm" version="1.1" style="shape-rendering:geometricPrecision; text-rendering:geometricPrecision; image-rendering:optimizeQuality; fill-rule:evenodd; clip-rule:evenodd"
viewBox="0 0 2117 2117"
 xmlns:xlink="http://www.w3.org/1999/xlink">
 <defs>
  <style type="text/css">
   <![CDATA[
    .fil0 {fill:black}
   ]]>
  </style>
 </defs>
 <g id="Слой_x0020_1">
  <metadata id="CorelCorpID_0Corel-Layer"/>
  <path class="fil0" d="M1672 552c85,-29 145,-107 152,-198 7,-89 -37,-169 -114,-209 0,0 -3,-2 -4,-2 -39,-20 -81,-30 -125,-30 -105,0 -200,58 -247,152l-115 227c-5,-34 -21,-65 -45,-90 -31,-31 -72,-48 -116,-48 -82,0 -149,60 -161,138l-115 -227c-47,-94 -142,-152 -248,-152 -43,0 -85,10 -124,30 -1,0 -4,2 -4,2 -77,40 -121,120 -114,209 7,91 66,169 155,199l447 117 80 18 0 22 0 270 82 -62 82 -61 0 -147 0 -22 84 -18 450 -118zm-1310 1452l532 0c0,-301 0,-601 0,-901l-532 0 0 901zm860 0l533 0 0 -901 -533 0c0,300 0,600 0,901zm0 -1311c0,109 0,218 0,328l615 0 123 0 0 -328 -738 0zm-1065 328l123 0 614 0 0 -328 -737 0 0 328zm819 334l0 169 82 -61 82 -62 0 -170 -82 62 -82 62zm0 544l0 105 164 0 0 -228 -123 92 -41 31zm0 -272l0 169 82 -61 82 -62 0 -170 -82 62 -82 62zm0 -545l0 21 0 149 82 -62 82 -61 0 -26 0 -82 0 -62 -82 62 -82 61zm-505 -607c-67,-23 -94,-81 -97,-128 -5,-56 22,-104 73,-131 27,-14 57,-21 87,-21 75,0 142,41 175,107l137 271 -375 -98zm936 -173c33,-66 100,-107 174,-107 31,0 61,7 91,22 48,26 75,74 70,130 -3,47 -31,105 -94,127l-378 99 137 -271z"/>
 </g>
</svg>
