<?xml version="1.0" encoding="UTF-8"?>
<!DOCTYPE svg PUBLIC "-//W3C//DTD SVG 1.1//EN" "http://www.w3.org/Graphics/SVG/1.1/DTD/svg11.dtd">
<!-- Creator: CorelDRAW X8 -->
<svg xmlns="http://www.w3.org/2000/svg" xml:space="preserve" width="21.1666mm" height="21.1666mm" version="1.1" style="shape-rendering:geometricPrecision; text-rendering:geometricPrecision; image-rendering:optimizeQuality; fill-rule:evenodd; clip-rule:evenodd"
viewBox="0 0 2117 2117"
 xmlns:xlink="http://www.w3.org/1999/xlink">
 <defs>
  <style type="text/css">
   <![CDATA[
    .fil0 {fill:black}
   ]]>
  </style>
 </defs>
 <g id="Слой_x0020_1">
  <metadata id="CorelCorpID_0Corel-Layer"/>
  <path class="fil0" d="M536 506l175 0c7,0 13,-5 13,-12l0 -170c0,-7 -6,-13 -13,-13l-175 0c-7,0 -13,6 -13,13l0 170c0,7 6,12 13,12zm697 726c-17,0 -33,5 -46,14l-74 -43c-2,-44 -38,-79 -83,-79 -45,0 -82,37 -82,83 0,12 3,24 8,35l-104 156c-18,-3 -36,0 -52,8l-58 -48c1,-5 1,-10 1,-15 0,-46 -37,-83 -83,-83 -45,0 -82,37 -82,83 0,45 37,83 82,83 10,0 20,-2 29,-6l67 55c0,1 0,3 0,4 0,46 37,83 82,83 46,0 83,-37 83,-83 0,-10 -2,-20 -6,-30l107 -160c19,2 38,-3 54,-13l74 43c3,44 39,79 83,79 45,0 82,-37 82,-83 0,-46 -37,-83 -82,-83zm645 -937l-135 0c-7,0 -16,5 -16,12l0 85c0,7 9,14 16,14l35 0 0 1494 -1216 0 0 -25c0,-7 -7,-14 -14,-14l-86 0c-7,0 -11,7 -11,14l0 124c0,7 4,13 11,13l1416 0c7,0 11,-6 11,-13l0 -1692c0,-7 -4,-12 -11,-12zm-212 1514l0 -1691c0,-7 -6,-13 -13,-13l-1413 0c-7,0 -12,6 -12,13l0 1691c0,7 5,13 12,13l1413 0c7,0 13,-6 13,-13zm-111 -98l-1216 0 0 -1500 1216 0 0 1500zm-1019 -669l844 0c7,0 13,-6 13,-13l0 -69c0,-7 -6,-13 -13,-13l-844 0c-7,0 -13,6 -13,13l0 69c0,7 6,13 13,13zm0 -173l844 0c7,0 13,-6 13,-13l0 -69c0,-7 -6,-13 -13,-13l-844 0c-7,0 -13,6 -13,13l0 69c0,7 6,13 13,13zm329 -363l515 0c7,0 13,-5 13,-12l0 -170c0,-7 -6,-13 -13,-13l-515 0c-7,0 -13,6 -13,13l0 170c0,7 6,12 13,12zm-329 190l844 0c7,0 13,-6 13,-13l0 -69c0,-7 -6,-13 -13,-13l-844 0c-7,0 -13,6 -13,13l0 69c0,7 6,13 13,13z"/>
 </g>
</svg>
