<?xml version="1.0" encoding="UTF-8"?>
<!DOCTYPE svg PUBLIC "-//W3C//DTD SVG 1.1//EN" "http://www.w3.org/Graphics/SVG/1.1/DTD/svg11.dtd">
<!-- Creator: CorelDRAW X8 -->
<svg xmlns="http://www.w3.org/2000/svg" xml:space="preserve" width="60.6776mm" height="18.3444mm" version="1.1" style="shape-rendering:geometricPrecision; text-rendering:geometricPrecision; image-rendering:optimizeQuality; fill-rule:evenodd; clip-rule:evenodd"
viewBox="0 0 6068 1834"
 xmlns:xlink="http://www.w3.org/1999/xlink">
 <defs>
  <style type="text/css">
   <![CDATA[
    .fil2 {fill:#D3A95F}
    .fil0 {fill:white}
    .fil1 {fill:white;fill-rule:nonzero}
   ]]>
  </style>
 </defs>
 <g id="Слой_x0020_1">
  <metadata id="CorelCorpID_0Corel-Layer"/>
  <g id="_2237166152128">
   <path class="fil0" d="M1875 1532l0 -600 98 0 0 600 -98 0zm2152 -525c-56,0 -101,20 -133,60 -32,40 -48,95 -48,166 0,73 15,129 46,167 31,38 76,57 135,57 26,0 50,-3 74,-8 24,-5 49,-12 75,-19l0 84c-47,18 -101,27 -160,27 -89,0 -156,-27 -203,-80 -47,-53 -71,-130 -71,-229 0,-62 12,-117 34,-164 23,-47 56,-83 100,-107 43,-25 94,-38 152,-38 62,0 118,13 170,39l-35 82c-20,-10 -42,-19 -64,-26 -23,-7 -47,-11 -72,-11zm364 525l-96 0 0 -639 96 0 0 639zm235 0l-97 0 0 -454 97 0 0 454zm-102 -574c0,-18 4,-31 14,-40 9,-10 23,-14 40,-14 17,0 31,4 40,14 9,9 14,22 14,40 0,16 -5,29 -14,39 -9,9 -23,14 -40,14 -17,0 -31,-5 -40,-14 -10,-10 -14,-23 -14,-39zm438 583c-70,0 -126,-21 -165,-62 -40,-41 -60,-98 -60,-171 0,-74 18,-132 55,-175 37,-42 88,-63 153,-63 60,0 107,18 142,54 35,37 52,87 52,151l0 52 -303 0c2,44 14,78 36,102 23,23 54,35 95,35 27,0 52,-2 75,-7 23,-5 48,-14 74,-26l0 79c-23,11 -47,19 -71,24 -24,4 -52,7 -83,7zm-17 -398c-31,0 -56,10 -74,29 -19,19 -29,48 -33,85l206 0c-1,-37 -10,-66 -27,-85 -18,-19 -42,-29 -72,-29zm704 389l-97 0 0 -279c0,-35 -7,-61 -21,-78 -15,-18 -37,-26 -68,-26 -40,0 -70,12 -89,36 -19,24 -29,64 -29,121l0 226 -96 0 0 -454 75 0 14 60 5 0c14,-22 33,-39 58,-51 25,-11 54,-17 84,-17 109,0 164,55 164,166l0 296zm303 -69c24,0 47,-4 71,-11l0 72c-11,5 -25,9 -41,12 -17,3 -35,5 -53,5 -91,0 -137,-48 -137,-145l0 -245 -62 0 0 -43 67 -35 32 -96 60 0 0 101 129 0 0 73 -129 0 0 243c0,24 6,41 17,52 12,11 27,17 46,17zm-3820 69l0 -600 98 0 0 516 254 0 0 84 -352 0zm542 0l-96 0 0 -454 96 0 0 454zm-102 -574c0,-18 5,-31 14,-40 10,-10 23,-14 41,-14 17,0 30,4 39,14 10,9 14,22 14,40 0,16 -4,29 -14,39 -9,9 -22,14 -39,14 -18,0 -31,-5 -41,-14 -9,-10 -14,-23 -14,-39zm333 334l55 -68 138 -146 111 0 -183 195 194 259 -113 0 -146 -199 -53 44 0 155 -96 0 0 -639 96 0 0 312 -5 87 2 0zm570 249c-71,0 -126,-21 -166,-62 -40,-41 -59,-98 -59,-171 0,-74 18,-132 55,-175 37,-42 88,-63 152,-63 60,0 108,18 142,54 35,37 53,87 53,151l0 52 -303 0c1,44 13,78 36,102 22,23 54,35 94,35 27,0 52,-2 75,-7 24,-5 48,-14 75,-26l0 79c-24,11 -47,19 -72,24 -24,4 -51,7 -82,7zm-18 -398c-30,0 -55,10 -73,29 -19,19 -30,48 -34,85l207 0c-1,-37 -10,-66 -27,-85 -18,-19 -42,-29 -73,-29z"/>
   <path class="fil1" d="M1177 1011c-19,-46 2,-98 48,-118 45,-19 98,2 117,48 16,37 28,76 37,117 8,41 12,81 12,122 0,167 -68,319 -178,429 -110,110 -262,178 -429,178 -168,0 -320,-68 -430,-178 -98,-98 -163,-230 -176,-376l0 0 -133 -910c0,0 152,-20 189,145l35 190c0,0 14,-10 18,-31 3,-20 65,-497 65,-497 0,0 160,14 149,159 -12,145 -43,276 -43,276 0,0 22,14 36,-14 13,-27 234,-504 234,-504 0,0 145,69 94,214 -37,103 -111,246 -152,322 37,-7 75,-11 114,-11 47,0 94,6 141,17 47,11 92,28 135,50 44,22 61,76 39,120 -23,44 -77,62 -120,39 -31,-15 -62,-27 -95,-35 -32,-8 -65,-11 -100,-11 -119,0 -226,47 -303,125 -78,77 -125,184 -125,303 0,118 47,225 125,302 77,78 184,126 303,126 118,0 225,-48 302,-126 78,-77 126,-184 126,-302 0,-30 -3,-59 -9,-87 -6,-28 -14,-55 -26,-82z"/>
   <path class="fil2" d="M781 847c186,0 337,150 337,336 0,186 -151,337 -337,337 -186,0 -336,-151 -336,-337 0,-186 150,-336 336,-336zm-180 362c-15,-18 -11,-45 7,-59 18,-14 45,-11 59,7l65 84 163 -210c14,-18 41,-21 59,-7 19,14 22,40 8,59l-196 252c-3,3 -5,5 -8,8 -18,14 -45,11 -59,-8l-98 -126z"/>
  </g>
 </g>
</svg>
