<?xml version="1.0" encoding="UTF-8"?>
<svg width="272px" height="273px" viewBox="0 0 272 273" version="1.1" xmlns="http://www.w3.org/2000/svg" xmlns:xlink="http://www.w3.org/1999/xlink">
    <!-- Generator: Sketch 49.2 (51160) - http://www.bohemiancoding.com/sketch -->
    <title>Group 18</title>
    <desc>Created with Sketch.</desc>
    <defs>
        <polygon id="path-1" points="0.458341538 0.00662308754 214.528457 0.00662308754 214.528457 268.999943 0.458341538 268.999943"></polygon>
        <polygon id="path-3" points="0 0.295096159 134.49339 0.295096159 134.49339 138.899885 0 138.899885"></polygon>
    </defs>
    <g id="Page-1" stroke="none" stroke-width="1" fill="none" fill-rule="evenodd">
        <g id="Desktop-HD-Copy" transform="translate(-584.000000, -6767.000000)">
            <g id="Group-19" transform="translate(204.000000, 6764.000000)">
                <g id="Group-18" transform="translate(383.000000, 0.000000)">
                    <g id="Group-22">
                        <g id="Page-1">
                            <path d="M24.80161,216.850701 C24.8685023,216.899511 38.6550922,235.501444 55.7769024,248.135377 C72.8608639,260.741382 80.1371367,263.06753 93.2131534,267.330579 L134.5,139.5 L24.80161,216.850701 Z" id="Fill-1" stroke="#FFFFFF" stroke-width="4" fill="#01CA8D"></path>
                            <g id="Group-5" transform="translate(54.466942, 5.000000)">
                                <mask id="mask-2" fill="white">
                                    <use xlink:href="#path-1"></use>
                                </mask>
                                <g id="Clip-4"></g>
                                <path d="M79.9396761,134.50684 C79.902261,179.337508 79.9745389,224.168543 80.1565098,268.999943 C107.784687,268.978101 135.653279,260.491381 159.624041,242.890274 C219.521325,198.909923 232.401936,114.731891 188.392751,54.8736434 C163.373374,20.8432307 133.975876,2.61108996 78.5330579,-2.00590236e-12 C78.2290334,-0.0143180891 79.9958022,67.2567342 79.9396761,134.50684 Z" id="Fill-3" stroke="#FFFFFF" stroke-width="4" fill="#3276FE" mask="url(#mask-2)"></path>
                            </g>
                            <path d="M93.3719008,267.462588 C106.795344,271.874318 120.679746,274.025288 134.5,274.000217 L134.366594,139.5 L93.3719008,267.462588 Z" id="Fill-6" stroke="#FFFFFF" stroke-width="4" fill="#FFA200"></path>
                            <g id="Group-10" transform="translate(0.000000, 0.566116)">
                                <mask id="mask-4" fill="white">
                                    <use xlink:href="#path-3"></use>
                                </mask>
                                <g id="Clip-9"></g>
                                <path d="M54.8096695,30.2950962 C21.4246203,54.8287269 -0.175103648,94.3700069 0.00192913607,138.899885 L134.49339,138.367829 C134.49339,49.0785327 133.995597,4.4338843 133.000012,4.4338843 C105.172101,4.4338843 79.1086537,13.0542883 54.8096695,30.2950962 Z" id="Fill-8" stroke="#FFFFFF" stroke-width="4" fill="#FF5D47" mask="url(#mask-4)"></path>
                            </g>
                            <path d="M0,140.034506 C0.11353958,168.634014 9.13041118,195.112158 24.4109511,216.85413 C25.1457134,217.89959 61.842063,192.114879 134.5,139.5 L0,140.034506 Z" id="Fill-11" stroke="#FFFFFF" stroke-width="4" fill="#C261F6"></path>
                            <path d="M211.198347,139.500288 C211.198347,182.473605 176.361905,217.309917 133.38843,217.309917 C90.4149542,217.309917 55.5785124,182.473605 55.5785124,139.500288 C55.5785124,96.5269718 90.4149542,61.6900826 133.38843,61.6900826 C176.361905,61.6900826 211.198347,96.5269718 211.198347,139.500288" id="Fill-13" fill="#FFFFFF"></path>
                        </g>
                        <circle id="Oval-7" stroke-opacity="0.05" stroke="#2E97DE" stroke-width="10" cx="133.5" cy="139.5" r="68.5"></circle>
                    </g>
                </g>
            </g>
        </g>
    </g>
</svg>