<svg width="16" height="16" viewBox="0 0 16 16" fill="#1A75BC" xmlns="http://www.w3.org/2000/svg">
<path d="M8 0C3.56364 0 0 3.56364 0 8C0 12.4364 3.56364 16 8 16C12.4364 16 16 12.4364 16 8C16 3.56364 12.4364 0 8 0ZM12.6182 5.49091L6.8 11.5273C6.72727 11.6 6.65455 11.6364 6.54545 11.6364C6.43636 11.6364 6.32727 11.6 6.29091 11.5273L3.45455 8.47273L3.38182 8.4C3.30909 8.32727 3.27273 8.21818 3.27273 8.14545C3.27273 8.07273 3.30909 7.96364 3.38182 7.89091L3.89091 7.38182C4.03636 7.23636 4.25455 7.23636 4.4 7.38182L4.43636 7.41818L6.43636 9.56364C6.50909 9.63636 6.61818 9.63636 6.69091 9.56364L11.5636 4.50909H11.6C11.7455 4.36364 11.9636 4.36364 12.1091 4.50909L12.6182 5.01818C12.7636 5.12727 12.7636 5.34545 12.6182 5.49091Z"/>
</svg>
