<svg xmlns="http://www.w3.org/2000/svg" viewBox="0 0 97.3 64.58"><defs><style>.cls-1{fill:#3cb371;}.cls-2{fill:#fff;}</style></defs><title>Ресурс 7</title><g id="Слой_2" data-name="Слой 2"><g id="Layer_1" data-name="Layer 1"><path class="cls-1" d="M97.2,8.7A8.71,8.71,0,0,0,88.5,0H41.6a8.71,8.71,0,0,0-8.7,8.7V44.1a8.71,8.71,0,0,0,8.7,8.7h8.8v10a1.72,1.72,0,0,0,3,1.2L64.6,52.9a.1.1,0,0,1,.1-.1H88.6a8.71,8.71,0,0,0,8.7-8.7V8.7Z"/><path class="cls-2" d="M62.7,12.1h4.6a1,1,0,0,1,1,1l-.5,18.8a.79.79,0,0,1-.8.8H63.2a.79.79,0,0,1-.8-.8l-.5-18.8A.81.81,0,0,1,62.7,12.1Z"/><rect class="cls-2" x="61.8" y="35.5" width="6.5" height="5.2" rx="1.4" ry="1.4"/><path d="M0,10.5a4,4,0,0,1,4-4H21.6a4,4,0,0,1,4,4h0a4,4,0,0,1-4,4H4A4,4,0,0,1,0,10.5Z"/><path d="M25.5,26.4a4,4,0,0,1-4,4H8.5a4,4,0,0,1,0-8h13a4,4,0,0,1,4,4Z"/><path d="M25.5,42.3h0a4,4,0,0,1-4,4H13.6a4,4,0,0,1-4-4h0a4,4,0,0,1,4-4h8A3.93,3.93,0,0,1,25.5,42.3Z"/></g></g></svg>