<svg xmlns="http://www.w3.org/2000/svg" viewBox="0 0 60 60"><defs><style>.cls-1{fill:#3cb371;}.cls-2{fill:#fff;}</style></defs><title>Ресурс 8</title><g id="Слой_2" data-name="Слой 2"><g id="Layer_1" data-name="Layer 1"><path class="cls-1" d="M59,0H1A1,1,0,0,0,0,1V59a1,1,0,0,0,1,1H59a1,1,0,0,0,1-1V1a1,1,0,0,0-1-1Z"/><path d="M12,53a7,7,0,0,1-1-13.92V8a1,1,0,0,1,2,0V39.08A7,7,0,0,1,12,53Z"/><path d="M31,35.92V52a1,1,0,0,1-2,0V35.92a7,7,0,0,1,0-13.84V8a1,1,0,0,1,2,0V22.08a7,7,0,0,1,0,13.84Z"/><path class="cls-2" d="M49,20.92V52a1,1,0,0,1-2,0V20.92a7,7,0,1,1,2,0Z"/></g></g></svg>