<svg xmlns="http://www.w3.org/2000/svg" viewBox="0 0 77.73 77.73"><defs><style>.cls-1{fill:#3cb371;}</style></defs><title>Ресурс 10</title><g id="Слой_2" data-name="Слой 2"><g id="Layer_1" data-name="Layer 1"><path class="cls-1" d="M49.75,12.54a5.47,5.47,0,0,0-7.72,0l-7,7-4.63-4.63.77-.77a3.29,3.29,0,0,0,0-4.63L22.73,1a3.29,3.29,0,0,0-4.63,0L15,4a3.29,3.29,0,0,0,0,4.63l8.49,8.49a3.29,3.29,0,0,0,4.63,0l.77-.77L33.54,21,18.86,35.7a5.46,5.46,0,0,0-1.52,4.61l-7,7a3.29,3.29,0,0,0,0,4.63l.89.89L5.91,63.33a4.14,4.14,0,0,0,.6,4.8l.77.77-7,7a1.09,1.09,0,0,0,1.52,1.57l0,0,7-7,.77.77a4.14,4.14,0,0,0,4.8.6l10.52-5.36.89.89a3.29,3.29,0,0,0,4.63,0l7-7A5.46,5.46,0,0,0,42,58.87L56.7,44.2l4.63,4.63-.77.77a3.29,3.29,0,0,0,0,4.63l8.49,8.49a3.29,3.29,0,0,0,4.63,0l3.09-3.09a3.29,3.29,0,0,0,0-4.63l-8.49-8.49a3.29,3.29,0,0,0-4.63,0l-.77.77-4.63-4.63,7-7a5.47,5.47,0,0,0,0-7.72Zm-1.54,1.54L63.65,29.53a3.25,3.25,0,0,1,0,4.63L40.49,57.33a3.25,3.25,0,0,1-4.63,0L20.41,41.88a3.25,3.25,0,0,1,0-4.63L43.58,14.08A3.25,3.25,0,0,1,48.21,14.08ZM21.18,2.5,29.68,11a1.07,1.07,0,0,1,0,1.54l-3.09,3.09a1.07,1.07,0,0,1-1.54,0L16.55,7.13a1.07,1.07,0,0,1,0-1.54L19.64,2.5A1.07,1.07,0,0,1,21.18,2.5ZM66.74,48.06l8.49,8.49a1.07,1.07,0,0,1,0,1.54l-3.09,3.09a1.07,1.07,0,0,1-1.54,0l-8.49-8.49a1.07,1.07,0,0,1,0-1.54l3.09-3.09A1.07,1.07,0,0,1,66.74,48.06ZM45,29.38a1.1,1.1,0,1,0-1.4,1.69l3.09,3.09a1.09,1.09,0,1,0,1.57-1.52l0,0-3.09-3.09Zm-7.72,3.09a1.1,1.1,0,0,0-1.4,1.69h0l7.72,7.72a1.09,1.09,0,1,0,1.57-1.52l0,0L37.4,32.61Zm-3.09,7.72a1.1,1.1,0,1,0-1.4,1.69L35.85,45a1.09,1.09,0,1,0,1.57-1.52l0,0-3.09-3.09Zm-16,2.39a5.39,5.39,0,0,0,.7.84L34.31,58.87a5.39,5.39,0,0,0,.84.7L28.9,65.82a1.07,1.07,0,0,1-1.54,0L11.91,50.38a1.07,1.07,0,0,1,0-1.54ZM12.86,54.41,23.33,64.88l-9.92,5a2.21,2.21,0,0,1-2.27-.24L8.05,66.59a2.21,2.21,0,0,1-.24-2.27Z"/></g></g></svg>