<svg xmlns="http://www.w3.org/2000/svg" viewBox="0 0 64.79 71.05"><defs><style>.cls-1{fill:#3cb371;}</style></defs><title>Ресурс 6</title><g id="Слой_2" data-name="Слой 2"><g id="Layer_1" data-name="Layer 1"><path class="cls-1" d="M62.55,33.3,21.12,15.11l-.06.15L17.56,4.44,16.17.13A1.79,1.79,0,0,0,15.06.05C12.19.67,7.57,6.73,4,14.84.59,22.62-.77,29.82.43,32.63V71H3.36V32.48l3.93-2.58,11.54-7.66,12.76,5.61L14.32,71H17.7l4.67-11.72L46.52,71h6.83L37.07,30.24l22.48,9.87a3.73,3.73,0,1,0,3-6.82ZM14.42,21.77l-6.93,4.8a.9.9,0,0,1-1.34-1.1L9,18.9a.9.9,0,0,1,.5-.48h0a.88.88,0,0,1,.69,0l4,1.78A.9.9,0,0,1,14.42,21.77Zm-2.05-10a.88.88,0,0,1-.46-1.18l2.84-6.47L17.9,14.2ZM49.2,69.09,24.92,57.31l15.8-9.45ZM24.43,54.21l5.72-14.33,8.48,5.83ZM38.37,42,31.26,37.1l2.58-6.46Z"/></g></g></svg>