<svg xmlns="http://www.w3.org/2000/svg" viewBox="0 0 48.54 71.21"><defs><style>.cls-1{fill:#3cb371;}</style></defs><title>Ресурс 4</title><g id="Слой_2" data-name="Слой 2"><g id="Layer_1" data-name="Layer 1"><path class="cls-1" d="M47.26,15.17,42.47,9.9a3.14,3.14,0,0,1-.32-3.83c.8-1.12,1.28-1.92,1.6-2.39a2.55,2.55,0,0,0,.32-2.39A2.14,2.14,0,0,0,42,0H6.23A2.49,2.49,0,0,0,4.15,1.28a1.94,1.94,0,0,0,.32,2.39c.32.48.8,1.28,1.6,2.39A3.1,3.1,0,0,1,5.75,9.9l-.32.48-.48.48L1.12,15A3.85,3.85,0,0,0,0,17.88V56.2a15,15,0,0,0,15,15H33.53a15,15,0,0,0,15-15V17.88A6.07,6.07,0,0,0,47.26,15.17ZM46,25.39H2.24V19.16H46ZM6.55,12.61H41.67l3.83,4.15H2.87ZM8.94,8.78H39.44a5.07,5.07,0,0,0,.48,1.44H8.46ZM6.55,2.55H41.67c-.32.48-1,1.28-1.6,2.24a3.37,3.37,0,0,0-.64,1.6H8.78a6.67,6.67,0,0,0-.64-1.6A21.87,21.87,0,0,1,6.55,2.55ZM33.37,69H14.85A12.64,12.64,0,0,1,2.24,56.36V27.78H46V56.36A12.64,12.64,0,0,1,33.37,69Z"/><path class="cls-1" d="M14.85,63.7A7.32,7.32,0,0,1,7.5,56.36a1.28,1.28,0,1,0-2.55,0,9.78,9.78,0,0,0,9.74,9.74A1.26,1.26,0,0,0,16,64.82,1,1,0,0,0,14.85,63.7Z"/></g></g></svg>