<svg xmlns="http://www.w3.org/2000/svg" viewBox="0 0 16 14.54"><title>Ресурс 8</title><g id="Слой_2" data-name="Слой 2"><g id="Слой_1-2" data-name="Слой 1"><path d="M1.7,9.69c.77.08,3.91,0,4.68,0,.42,0,.42,0,.23.43-1.14,2.51-.08,4.12.9,4.33.77.17,1.68,0,1.64-1.62a2.13,2.13,0,0,1,.56-1.49c.55-.59,1-1.25,1.54-1.86.32-.37.59-.83,1.08-1A.81.81,0,0,0,13,7.63c0-.92,0-1.83,0-2.75S13,3,13,2.05c0-.52-.17-.74-.65-.81s-3-.4-3.37-.55A13.27,13.27,0,0,0,3.38.06,2.05,2.05,0,0,0,1.29,2.23a.63.63,0,0,1-.14.43,2,2,0,0,0-.42,1.5.7.7,0,0,1-.07.52A1.67,1.67,0,0,0,.42,6,1.42,1.42,0,0,1,.23,7,1.83,1.83,0,0,0,1.7,9.69ZM14.17,8.34H15.5a.5.5,0,0,0,.5-.5V1.89a.5.5,0,0,0-.5-.5H14.17a.5.5,0,0,0-.5.5V7.84A.5.5,0,0,0,14.17,8.34Z"/></g></g></svg>