<svg xmlns="http://www.w3.org/2000/svg" viewBox="0 0 11.16 13.02"><title>Ресурс 1</title><g id="Слой_2" data-name="Слой 2"><g id="Слой_1-2" data-name="Слой 1"><path d="M5,9.13a.23.23,0,1,0,.33.33L8.07,6.67a.23.23,0,0,0,.05-.08.23.23,0,0,0,0-.18.24.24,0,0,0-.05-.08L5.28,3.56A.23.23,0,1,0,5,3.88L7.34,6.28H.23a.23.23,0,1,0,0,.46H7.34Z"/><path d="M10.93,0H2.32a.23.23,0,0,0-.23.23V5.11a.23.23,0,1,0,.46,0V.46h8.14V12.55H2.56V7.9a.23.23,0,0,0-.46,0v4.88a.23.23,0,0,0,.23.23h8.6a.23.23,0,0,0,.23-.23V.23A.23.23,0,0,0,10.93,0Z"/></g></g></svg>