<svg xmlns="http://www.w3.org/2000/svg" viewBox="0 0 11.36 11.36"><title>Ресурс 23</title><g id="Слой_2" data-name="Слой 2"><g id="Слой_1-2" data-name="Слой 1"><path d="M11.32,3.34A3.47,3.47,0,0,0,10.41,1,3.47,3.47,0,0,0,8,0Q7.37,0,5.68,0T3.34,0A3.47,3.47,0,0,0,1,1,3.47,3.47,0,0,0,0,3.34Q0,4,0,5.68T0,8A3.47,3.47,0,0,0,1,10.41a3.47,3.47,0,0,0,2.38.92q.65,0,2.34,0t2.34,0a3.47,3.47,0,0,0,2.38-.92A3.47,3.47,0,0,0,11.32,8q0-.65,0-2.34T11.32,3.34ZM7.74,7.74a2.81,2.81,0,0,1-2.06.85,2.81,2.81,0,0,1-2.06-.85,2.81,2.81,0,0,1-.85-2.06,2.81,2.81,0,0,1,.85-2.06,2.81,2.81,0,0,1,2.06-.85A2.9,2.9,0,0,1,8.59,5.68,2.81,2.81,0,0,1,7.74,7.74ZM9.19,3.13A.68.68,0,0,1,8,2.65a.68.68,0,1,1,1.16.48Z"/><path d="M5.68,3.79A1.89,1.89,0,0,0,3.79,5.68,1.89,1.89,0,0,0,5.68,7.57,1.89,1.89,0,0,0,7.57,5.68,1.89,1.89,0,0,0,5.68,3.79Z"/></g></g></svg>