<svg xmlns="http://www.w3.org/2000/svg" viewBox="0 0 16 14.54"><defs><style>.cls-1{fill:#00b46c;}</style></defs><title>Ресурс 9</title><g id="Слой_2" data-name="Слой 2"><g id="Слой_1-2" data-name="Слой 1"><path class="cls-1" d="M14.3,4.85c-.77-.08-3.91,0-4.68,0-.42,0-.42,0-.23-.43,1.14-2.51.08-4.12-.9-4.33C7.72-.11,6.81,0,6.84,1.67a2.13,2.13,0,0,1-.56,1.49c-.55.59-1,1.25-1.54,1.86-.32.37-.59.83-1.08,1A.81.81,0,0,0,3,6.91c0,.92,0,1.83,0,2.75s0,1.88,0,2.82c0,.52.17.74.65.81s3,.4,3.37.55a13.27,13.27,0,0,0,5.56.64,2.05,2.05,0,0,0,2.09-2.18.63.63,0,0,1,.14-.43,2,2,0,0,0,.42-1.5.7.7,0,0,1,.07-.52,1.67,1.67,0,0,0,.24-1.29,1.42,1.42,0,0,1,.19-1A1.83,1.83,0,0,0,14.3,4.85ZM1.83,6.2H.5a.5.5,0,0,0-.5.5v5.95a.5.5,0,0,0,.5.5H1.83a.5.5,0,0,0,.5-.5V6.7A.5.5,0,0,0,1.83,6.2Z"/></g></g></svg>