<svg xmlns="http://www.w3.org/2000/svg" viewBox="0 0 223 35.75"><title>Ресурс 1</title><g id="Слой_2" data-name="Слой 2"><g id="Слой_1-2" data-name="Слой 1"><path d="M27.19,3V13L23,6.11H18.14v23.1l1.71,2.38H7.34L9,29.26V6.11H4.21L0,13V3l3.49.79H23.7Z"/><path d="M26.67,21.28c0-7.62,6.31-10.76,12.15-10.76S51,13.66,51,21.28,44.62,32,38.82,32,26.67,28.86,26.67,21.28Zm15.08.79c0-5.91-.91-9.65-3.21-9.65s-2.7,3.18-2.7,8c0,5.91,1,9.65,3.22,9.65S41.76,27,41.76,22.07Z"/><path d="M64.94,31.6H52.75l1.71-2.38V6.87L52.83,4.52,63.19,0V29.22Zm15,0v.2c-8.18.79-12.58-.08-16.08-10.6l6.91-6.31-2.54-4H77.8l-6.87,7.22C73.63,24.21,76.17,29.41,79.94,31.6Z"/><path d="M100,23.86l.2.2C98.76,29.26,95.46,32,90,32c-7.3,0-11.35-4.92-11.35-10.92,0-6.47,4.72-10.56,11.83-10.56,6.31,0,9.69,3.18,9.85,9H86.73c.4,4.57,2.82,6.55,6.51,6.55A11.38,11.38,0,0,0,100,23.86ZM86.69,17.78h5.4c0-3.61-.71-5.36-2.38-5.36C87.88,12.43,86.77,14.41,86.69,17.78Z"/><path d="M117.45,29.22V17.39c0-1.91-.79-2.58-2.22-2.58a5.06,5.06,0,0,0-2.9,1V29.22L114,31.6H101.89l1.71-2.38V17.07l-1.67-2.3,10.4-4.57-.6,4,.2.2a10.51,10.51,0,0,1,8.22-3.85c3.18,0,6,1.39,6,6.19V29.22l1.75,2.38H115.75Z"/><path d="M154,20.28C154,28.46,147.1,32,141.07,32a20.38,20.38,0,0,1-7.58-1.43L130.27,32V6.87L128.6,4.52,139,0V10.48l-.6,2.74.2.2a8.47,8.47,0,0,1,6.43-2.9C149.21,10.52,154,13.46,154,20.28Zm-8.81,1.79c0-5.44-1.75-7.74-3.89-7.74a3.44,3.44,0,0,0-2.26.79V27.47a2.5,2.5,0,0,0,2.38,2.62C143.53,30.09,145.16,27.15,145.16,22.07Z"/><path d="M179.45,27.31A6.18,6.18,0,0,1,173.14,32a5.49,5.49,0,0,1-5-2.78h-.2a7.56,7.56,0,0,1-6,2.78c-3.57,0-5.8-2-5.8-5.16a6.08,6.08,0,0,1,3.26-5.36h8.38V19.77c0-3.18-1.59-4-4-4a11.38,11.38,0,0,0-6.23,2l-.2-.2c1.75-3.45,5-7,11-7,5,0,8.1,2.58,8.1,6.91v8.5c0,1.39.56,1.83,1.39,1.83a2.37,2.37,0,0,0,1.55-.64Zm-11.71.16V23.22h-3.18a3.68,3.68,0,0,0-1.15,2.66,2.18,2.18,0,0,0,2.22,2.42A3.19,3.19,0,0,0,167.74,27.47Z"/><path d="M198.94,24.89c0,3.85-3.1,7.11-9.81,7.11a17.53,17.53,0,0,1-6-1l-2.62,1.31V23.38l5,6.11a5.61,5.61,0,0,0,1.79.28c2.26,0,3.22-1.07,3.22-2.14,0-3.41-10-3.53-10-10.12,0-4.17,3.89-7,9.85-7a15.84,15.84,0,0,1,4.92.75l2.5-1.07v8l-4.76-5.32a7.75,7.75,0,0,0-1-.08c-2.18,0-3.33,1-3.33,2.1C188.78,18.14,198.94,17.94,198.94,24.89Z"/><path d="M222.72,23.86l.2.2c-1.47,5.2-4.76,7.94-10.24,7.94-7.3,0-11.35-4.92-11.35-10.92,0-6.47,4.72-10.56,11.83-10.56,6.31,0,9.69,3.18,9.85,9H209.42c.4,4.57,2.82,6.55,6.51,6.55A11.38,11.38,0,0,0,222.72,23.86Zm-13.34-6.07h5.4c0-3.61-.71-5.36-2.38-5.36C210.57,12.43,209.46,14.41,209.38,17.78Z"/><rect x="35.65" y="6.58" width="1.38" height="5.7"/><rect x="40.61" y="6.58" width="1.38" height="5.7"/><rect x="35.65" y="30.05" width="1.38" height="5.7"/><rect x="40.61" y="30.05" width="1.38" height="5.7"/></g></g></svg>