<svg xmlns="http://www.w3.org/2000/svg" viewBox="0 0 9.19 14.89"><defs><style>.cls-1{fill:#db831c;}</style></defs><title>Ресурс 18</title><g id="Слой_2" data-name="Слой 2"><g id="Слой_1-2" data-name="Слой 1"><path class="cls-1" d="M4.59,7.83A3.79,3.79,0,0,0,7.37,6.68,3.78,3.78,0,0,0,8.51,3.92,3.79,3.79,0,0,0,7.37,1.15,3.79,3.79,0,0,0,4.59,0,3.79,3.79,0,0,0,1.82,1.15,3.79,3.79,0,0,0,.67,3.92,3.78,3.78,0,0,0,1.82,6.68,3.79,3.79,0,0,0,4.59,7.83Zm-1-5a1.42,1.42,0,0,1,1-.44,1.42,1.42,0,0,1,1,.44,1.42,1.42,0,0,1,.44,1.05,1.41,1.41,0,0,1-.44,1A1.47,1.47,0,0,1,3.55,5a1.41,1.41,0,0,1-.44-1A1.42,1.42,0,0,1,3.55,2.87Z"/><path class="cls-1" d="M9,7.84H9a1.18,1.18,0,0,0-.3-.37,1.22,1.22,0,0,0-.44-.23,1.1,1.1,0,0,0-.61,0,1.73,1.73,0,0,0-.6.32l-.3.2a3.58,3.58,0,0,1-.88.36,4.45,4.45,0,0,1-2.15.11,4.71,4.71,0,0,1-.69-.18,3.9,3.9,0,0,1-.51-.23l-.31-.18-.11-.08a1.78,1.78,0,0,0-.62-.33,1.11,1.11,0,0,0-.61,0,1.23,1.23,0,0,0-.44.23,1.18,1.18,0,0,0-.3.38,1.51,1.51,0,0,0-.15.5,1.06,1.06,0,0,0,.05.45,1.17,1.17,0,0,0,.28.41,3,3,0,0,0,.38.33l.51.34a5.48,5.48,0,0,0,2.05.71L1,12.87a1.09,1.09,0,0,0-.33.8,1.06,1.06,0,0,0,.33.79l.1.11a1.13,1.13,0,0,0,1.59,0L4.6,12.64l1.92,1.93a1.14,1.14,0,0,0,1.61,0l.09-.09a1.08,1.08,0,0,0,.33-.79,1.11,1.11,0,0,0-.33-.8L5.94,10.59a5.52,5.52,0,0,0,2-.71l.51-.34a2.86,2.86,0,0,0,.37-.33,1.15,1.15,0,0,0,.28-.41,1,1,0,0,0,.05-.45A1.51,1.51,0,0,0,9,7.84Z"/></g></g></svg>