<svg xmlns="http://www.w3.org/2000/svg" viewBox="0 0 15.45 15.49"><title>Ресурс 10</title><g id="Слой_2" data-name="Слой 2"><g id="Слой_1-2" data-name="Слой 1"><g id="Eco_User" data-name="Eco User"><circle cx="6.7" cy="3.61" r="3.61"/><path d="M12.21,9.84a.22.22,0,0,0,.1-.36c0-.05-.05-.05-.05-.1a2.18,2.18,0,0,0-.36-.26A12,12,0,0,0,6.7,7.73a11.42,11.42,0,0,0-5.2,1.44A2.9,2.9,0,0,0,0,11.69v.67a1,1,0,0,0,1,1H9a.24.24,0,0,0,.26-.26A4.6,4.6,0,0,1,12.21,9.84Z"/><path d="M14.79,9.79c-2.27,0-5,1.6-5,3.66a.24.24,0,0,0,.26.26.39.39,0,0,0,.21-.1A8.65,8.65,0,0,1,13,11.44a.27.27,0,0,1,.36.1c.1.15.05.26-.1.36h-.05a8.26,8.26,0,0,0-3.45,3.19.27.27,0,0,0,.46.26c.1-.15.15-.26.26-.41a2,2,0,0,0,1.29.52c2,0,3.66-2.73,3.66-5a.68.68,0,0,0-.67-.67Z"/></g></g></g></svg>