<svg xmlns="http://www.w3.org/2000/svg" viewBox="0 0 13.16 14.78"><title>Ресурс 6</title><g id="Слой_2" data-name="Слой 2"><g id="Слой_1-2" data-name="Слой 1"><path d="M4.62,11.13a.36.36,0,0,1,.26.1l4.36,3.56,0-3.33A4.36,4.36,0,0,1,5.26,7.17a4.35,4.35,0,0,1,3.9-4.36L9.14,0,4.6,0,.06,0,0,14.78l4.36-3.56A.42.42,0,0,1,4.62,11.13Z"/><path d="M12.15,9.6a3.54,3.54,0,0,0-.06-5,3.46,3.46,0,0,0-2.47-1h0A3.56,3.56,0,0,0,6.07,7.17a3.53,3.53,0,0,0,3.58,3.5A3.46,3.46,0,0,0,12.15,9.6ZM9.64,9.26h0a.4.4,0,0,1-.4-.4l0-1.33-1.33,0h0a.4.4,0,0,1,0-.8l1.33,0,0-1.33a.4.4,0,1,1,.8,0l0,1.33,1.33,0h0a.4.4,0,1,1,0,.8L10,7.53l0,1.33A.39.39,0,0,1,9.64,9.26Z"/></g></g></svg>