<svg xmlns="http://www.w3.org/2000/svg" viewBox="0 0 15.32 8.74"><title>Ресурс 20</title><g id="Слой_2" data-name="Слой 2"><g id="Слой_1-2" data-name="Слой 1"><path d="M15.3.63q.18.51-1.2,2.35l-.52.68-.44.57a3.62,3.62,0,0,0-.24.4.53.53,0,0,0-.1.34,1.84,1.84,0,0,0,.1.28,1.16,1.16,0,0,0,.26.34l.45.42,0,0A8,8,0,0,1,15.19,7.8l.05.1a1,1,0,0,1,.06.21.62.62,0,0,1,0,.27.39.39,0,0,1-.2.22.93.93,0,0,1-.47.1l-2,0a.89.89,0,0,1-.45,0,2,2,0,0,1-.42-.18l-.16-.1A3.75,3.75,0,0,1,11,7.91c-.21-.23-.39-.44-.55-.62A2.61,2.61,0,0,0,10,6.83a.51.51,0,0,0-.45-.12l-.06,0-.14.12a1,1,0,0,0-.17.24A1.64,1.64,0,0,0,9,7.5,2.63,2.63,0,0,0,9,8.12a.81.81,0,0,1,0,.22.54.54,0,0,1-.06.15l0,0a.63.63,0,0,1-.42.18H7.5a3.61,3.61,0,0,1-1.16-.13,4.42,4.42,0,0,1-1-.42,9.39,9.39,0,0,1-.82-.53,4.75,4.75,0,0,1-.56-.46L3.7,7l-.22-.24Q3.34,6.57,2.91,6T2.07,4.8q-.42-.64-1-1.68T0,.94A.64.64,0,0,1,0,.73.25.25,0,0,1,0,.6l0,0A.56.56,0,0,1,.51.4L2.7.38l.18.05L3,.5l0,0a.53.53,0,0,1,.19.26q.16.4.37.83t.33.65l.13.23q.23.48.45.83a4.15,4.15,0,0,0,.39.55,1.83,1.83,0,0,0,.33.31.5.5,0,0,0,.27.11.59.59,0,0,0,.22,0l0,0L5.85,4A1.28,1.28,0,0,0,6,3.66C6,3.5,6,3.29,6,3A6.16,6.16,0,0,0,6,2,3.68,3.68,0,0,0,6,1.43a1.53,1.53,0,0,0-.11-.37l0-.1A1,1,0,0,0,5.12.62c-.07,0-.06-.07,0-.19a1,1,0,0,1,.3-.24A5.24,5.24,0,0,1,7.37,0,5.29,5.29,0,0,1,8.45.1a1,1,0,0,1,.27.11A.43.43,0,0,1,8.88.4,1.25,1.25,0,0,1,9,.66,1.84,1.84,0,0,1,9,1c0,.15,0,.3,0,.44L9,2c0,.24,0,.46,0,.66s0,.17,0,.34,0,.29,0,.38a3.19,3.19,0,0,0,0,.32A.88.88,0,0,0,9.06,4a.53.53,0,0,0,.18.2l.13,0s.12,0,.21-.09a2.9,2.9,0,0,0,.3-.28,4.09,4.09,0,0,0,.42-.53q.25-.36.54-.86A13.06,13.06,0,0,0,11.7.71a.56.56,0,0,1,.08-.14l.09-.08,0,0,0,0,.1,0h.16l2.3,0a1.24,1.24,0,0,1,.51,0,.46.46,0,0,1,.25.13Z"/></g></g></svg>