<svg xmlns="http://www.w3.org/2000/svg" viewBox="0 0 15.42 11.57"><defs><style>.cls-1{fill:#00b46c;}</style></defs><title>Ресурс 9</title><g id="Слой_2" data-name="Слой 2"><g id="Слой_1-2" data-name="Слой 1"><g id="Page-1"><g id="Icon-Set-Filled"><path id="cloud-download" class="cls-1" d="M10.95,6.66,8.09,9.5a.57.57,0,0,1-.73,0L4.49,6.66A.48.48,0,0,1,5.17,6L7.23,8V3.38a.48.48,0,1,1,1,0V8L10.26,6a.48.48,0,1,1,.69.68Zm.17-4.23A4.33,4.33,0,0,0,2.91,4,3.9,3.9,0,0,0,0,7.71a4,4,0,0,0,3.86,3.85H12c1.66-.72,3.37-2.72,3.37-4.58a4.57,4.57,0,0,0-4.31-4.56Z"/></g></g></g></g></svg>