<svg xmlns="http://www.w3.org/2000/svg" viewBox="0 0 14.74 10.36"><title>Ресурс 24</title><g id="Слой_2" data-name="Слой 2"><g id="Слой_1-2" data-name="Слой 1"><path d="M7.37,0Q8.75,0,10,0t1.89.08l.6,0h.14l.19,0,.19,0,.23.06.23.11a1.58,1.58,0,0,1,.25.16A2,2,0,0,1,14,.77l.13.15a2.79,2.79,0,0,1,.24.48,3.13,3.13,0,0,1,.22.83q.07.53.1,1.12t0,.93V5.74a17.37,17.37,0,0,1-.15,2.38,3.28,3.28,0,0,1-.21.82,2.06,2.06,0,0,1-.26.5L14,9.59a2.06,2.06,0,0,1-.24.22,1.4,1.4,0,0,1-.25.16l-.23.1-.23.06-.2,0-.19,0h-.14q-2.06.16-5.16.16l-3-.05-1.65-.06-.4,0-.3,0-.45-.08a2.56,2.56,0,0,1-.42-.17,1.64,1.64,0,0,1-.46-.34L.6,9.44A2.79,2.79,0,0,1,.37,9a3.13,3.13,0,0,1-.22-.83Q.08,7.6,0,7t0-.93V4.62A17.37,17.37,0,0,1,.15,2.24a3.28,3.28,0,0,1,.21-.82A2,2,0,0,1,.62.91L.73.77A1.91,1.91,0,0,1,1,.56,1.58,1.58,0,0,1,1.23.4L1.46.29,1.69.22l.19,0,.19,0h.14Q4.28,0,7.37,0ZM5.85,7.09,9.83,5,5.85,3Z"/></g></g></svg>