<svg xmlns="http://www.w3.org/2000/svg" viewBox="0 0 10.24 6.77"><defs><style>.cls-1{fill:#3a4349;}</style></defs><title>Ресурс 1</title><g id="Слой_2" data-name="Слой 2"><g id="Слой_1-2" data-name="Слой 1"><path class="cls-1" d="M7.18,6.77a.45.45,0,0,1-.3-.08.37.37,0,0,1,0-.53L9.37,3.67a.37.37,0,0,0,0-.53L6.88.64a.37.37,0,0,1,0-.53.37.37,0,0,1,.53,0L9.9,2.61a1.1,1.1,0,0,1,0,1.59L7.41,6.69C7.41,6.77,7.33,6.77,7.18,6.77Z"/><path class="cls-1" d="M9.45,3.74H.38A.36.36,0,0,1,0,3.36.36.36,0,0,1,.38,3H9.45a.36.36,0,0,1,.38.38A.36.36,0,0,1,9.45,3.74Z"/></g></g></svg>