<svg xmlns="http://www.w3.org/2000/svg" viewBox="0 0 19.47 11.11"><defs><style>.cls-1{fill:#f3f3f3;}</style></defs><title>Ресурс 1</title><g id="Слой_2" data-name="Слой 2"><g id="Слой_1-2" data-name="Слой 1"><path class="cls-1" d="M19.44.8q.23.65-1.52,3l-.66.86q-.41.52-.56.73a4.61,4.61,0,0,0-.31.5.67.67,0,0,0-.12.43,2.34,2.34,0,0,0,.13.35,1.47,1.47,0,0,0,.33.44l.58.54.05,0A10.1,10.1,0,0,1,19.3,9.91l.07.13a1.25,1.25,0,0,1,.07.27.79.79,0,0,1,0,.34.5.5,0,0,1-.25.28,1.18,1.18,0,0,1-.6.13l-2.59,0a1.14,1.14,0,0,1-.57-.05,2.48,2.48,0,0,1-.53-.22l-.2-.12A4.77,4.77,0,0,1,14,10c-.27-.29-.5-.55-.69-.79a3.32,3.32,0,0,0-.62-.59.64.64,0,0,0-.57-.16l-.08,0a.88.88,0,0,0-.17.15,1.25,1.25,0,0,0-.22.3,2.09,2.09,0,0,0-.17.53,3.34,3.34,0,0,0-.07.79,1,1,0,0,1,0,.28.69.69,0,0,1-.08.19l0,.05a.8.8,0,0,1-.54.22H9.53A4.58,4.58,0,0,1,8,10.88a5.61,5.61,0,0,1-1.33-.54,11.93,11.93,0,0,1-1-.67A6,6,0,0,1,5,9.1L4.7,8.85l-.28-.3q-.18-.2-.72-.92T2.63,6.09Q2.1,5.28,1.38,4T.06,1.2A.82.82,0,0,1,0,.92.32.32,0,0,1,0,.76L.07.7A.71.71,0,0,1,.65.51l2.78,0,.23.07.16.09.05,0A.67.67,0,0,1,4.12,1q.2.51.47,1T5,2.87l.16.29q.29.61.57,1.05a5.28,5.28,0,0,0,.49.69,2.33,2.33,0,0,0,.42.39A.63.63,0,0,0,7,5.44a.75.75,0,0,0,.27-.05l.05-.05a1.91,1.91,0,0,0,.12-.22,1.63,1.63,0,0,0,.14-.48c0-.2.06-.47.1-.82a7.83,7.83,0,0,0,0-1.27,4.67,4.67,0,0,0-.09-.74,1.94,1.94,0,0,0-.14-.47l-.06-.12A1.24,1.24,0,0,0,6.51.79c-.09,0-.07-.09.05-.24a1.22,1.22,0,0,1,.38-.3A6.66,6.66,0,0,1,9.37,0a6.73,6.73,0,0,1,1.37.13,1.2,1.2,0,0,1,.34.14.55.55,0,0,1,.21.24,1.59,1.59,0,0,1,.11.32,2.34,2.34,0,0,1,0,.46c0,.2,0,.38,0,.56l0,.71c0,.3,0,.58,0,.84,0,.07,0,.22,0,.43s0,.37,0,.49a4,4,0,0,0,0,.41,1.11,1.11,0,0,0,.12.39.68.68,0,0,0,.23.25l.17,0c.06,0,.15,0,.26-.11A3.68,3.68,0,0,0,12.56,5a5.19,5.19,0,0,0,.53-.68q.31-.46.69-1.09A16.6,16.6,0,0,0,14.86.9.71.71,0,0,1,15,.73a.48.48,0,0,1,.11-.11l0,0,.05,0,.13,0h.2l2.92,0a1.58,1.58,0,0,1,.65,0,.59.59,0,0,1,.31.17Z"/></g></g></svg>