<svg xmlns="http://www.w3.org/2000/svg" viewBox="0 0 104.8 95.11"><defs><style>.cls-1{fill:#3cb371;}.cls-2{fill:#fff;}</style></defs><title>Ресурс 9</title><g id="Слой_2" data-name="Слой 2"><g id="Layer_1" data-name="Layer 1"><path d="M0,89.21,12.92,4.4A5.18,5.18,0,0,1,18.82.06h0L43.55,3.81c-2.87,1.74-4.24,5.1-4.63,7.76L20.72,8.81,9.28,84.19,51.73,69.7a5.18,5.18,0,0,1,6.66,5.7c-.69,4.55,1.48,8.27,7.29,9.15C71,85.36,74.58,82,75.2,78l1.95-12.83,8.36,1.27L83.56,79.22A17.92,17.92,0,0,1,66.45,94.41l-62,.7a5.18,5.18,0,0,1-4.34-5.9H0Z"/><path class="cls-1" d="M104.71,20.87,100,51.9a7.69,7.69,0,0,1-8.76,6.45h0l-21-3.18-.06.06L58.94,63.54a1.56,1.56,0,0,1-2.46-1.49l1.33-8.77-7.74-1.17a7.69,7.69,0,0,1-6.45-8.76h0l4.71-31a7.69,7.69,0,0,1,8.76-6.45l41.17,6.25a7.69,7.69,0,0,1,6.46,8.75Z"/><path class="cls-2" d="M73.08,19.95,71,36.51a.75.75,0,0,0,.63.83l3.38.51a.75.75,0,0,0,.85-.61l2.95-16.43a.85.85,0,0,0-.69-1h0l-4.05-.62a.85.85,0,0,0-1,.71Z"/><path class="cls-2" d="M75.63,41.79a1.27,1.27,0,0,0-1.07-1.45l-3.22-.49a1.27,1.27,0,0,0-1.45,1.07L69.58,43a1.27,1.27,0,0,0,1.07,1.4l3.21.49a1.27,1.27,0,0,0,1.45-1Z"/></g></g></svg>