<svg xmlns="http://www.w3.org/2000/svg" viewBox="0 0 62 62"><defs><style>.cls-1{fill:#39c;}</style></defs><title>Ресурс 2</title><g id="Слой_2" data-name="Слой 2"><g id="Слой_1-2" data-name="Слой 1"><g id="Слой_2-2" data-name="Слой 2"><g id="Layer_1" data-name="Layer 1"><path class="cls-1" d="M61,56H58V40.32a7,7,0,0,0,0-12.63V7a7,7,0,0,0-7-7H29a7,7,0,0,0-7,7V8H20a1,1,0,0,0-1,1v3H18a1,1,0,0,0-1,1v4.59a21,21,0,0,0-4,2.2V18H11v3.39A20.84,20.84,0,0,0,6.06,46H1a1,1,0,0,0-1,1V61a1,1,0,0,0,1,1H5a1,1,0,0,0,1-1V52h4.33a20.72,20.72,0,0,0,3.91,3H14v6a1,1,0,0,0,1,1H35a1,1,0,0,0,1-1V55h-.24a20.72,20.72,0,0,0,3.91-3H44v9a1,1,0,0,0,1,1h4a1,1,0,0,0,1-1V47a1,1,0,0,0-1-1H44a20.92,20.92,0,0,0-9.82-27.91h0L33,17.59V13a1,1,0,0,0-1-1H31V9a1,1,0,0,0-1-1H28V7a1,1,0,0,1,1-1H51a1,1,0,0,1,1,1V27.69a7,7,0,0,0,0,12.63V61a1,1,0,0,0,1,1h8a1,1,0,0,0,1-1V57A1,1,0,0,0,61,56ZM55,33a1,1,0,1,1-1,1A1,1,0,0,1,55,33Zm1,5.9V36.82A3,3,0,0,0,57.82,35H59.9A5,5,0,0,1,56,38.9ZM59.9,33H57.82A3,3,0,0,0,56,31.18V29.1A5,5,0,0,1,59.9,33ZM17,44H13V42h4Zm0-4H13V38h4Zm0-4H13V34h4Zm0-4H13V30h4Zm0-4H13V26h4Zm0-8.21V24H13V22.29A18.63,18.63,0,0,1,17,19.79ZM2,60V58H4v2ZM5,50a1,1,0,0,0-1,1v5H2V48H7.15a21,21,0,0,0,1.39,2ZM34,60H16V56a20.74,20.74,0,0,0,18,0Zm-9-4A19,19,0,0,1,11,24.2V48h2V46h4v2h2V19a19.76,19.76,0,0,1,2-.56L43.57,41A19,19,0,0,1,25,56Zm1.67-37.91L43.92,35.33c0,.55.09,1.11.09,1.67a9.25,9.25,0,0,1-.08,1.51L23.49,18.08c.5,0,1-.08,1.51-.08A10.64,10.64,0,0,1,26.67,18.09ZM46,60V58h2v2Zm2-12v8H46V51a1,1,0,0,0-1-1H41.46a21,21,0,0,0,1.39-2ZM43.27,31.86,30.14,18.73,31,19h0A19.06,19.06,0,0,1,43.27,31.86ZM25,16a21,21,0,0,0-6,.88V14H31v2.88A21,21,0,0,0,25,16Zm4-4H21V10h8ZM51,4H29a3,3,0,0,0-3,3V8H24V7a5,5,0,0,1,5-5H51a5,5,0,0,1,5,5V27.08a6.1,6.1,0,0,0-2,0V7A3,3,0,0,0,51,4Zm3,25.1v2.08A3,3,0,0,0,52.18,33H50.1A5,5,0,0,1,54,29.1ZM50.1,35h2.08A3,3,0,0,0,54,36.82V38.9A5,5,0,0,1,50.1,35ZM55,41a6.74,6.74,0,0,0,1-.08V56H54V40.92A6.74,6.74,0,0,0,55,41Zm5,19H54V58h6Z"/></g></g></g></g></svg>