<svg xmlns="http://www.w3.org/2000/svg" viewBox="0 0 47.6 47.6"><defs><style>.cls-1{fill:#3cb371;}</style></defs><title>Ресурс 3</title><g id="Слой_2" data-name="Слой 2"><g id="Layer_1" data-name="Layer 1"><path class="cls-1" d="M46.28,39.67H45V38.34a17.22,17.22,0,0,0-14.54-17V14.54a1.32,1.32,0,0,0-1.32-1.32h-4V10.58H37.68a4,4,0,1,0,0-7.93H25.12V1.32a1.32,1.32,0,1,0-2.64,0V2.64H9.26a4,4,0,0,0,0,7.93H22.48v2.64h-4a1.32,1.32,0,0,0-1.32,1.32v6.81a17.22,17.22,0,0,0-14.54,17v1.32H1.32A1.32,1.32,0,0,0,0,41v5.29A1.32,1.32,0,0,0,1.32,47.6H17.19a1.32,1.32,0,0,0,1.32-1.32V41a1.32,1.32,0,0,0-1.32-1.32H15.87V38.34a4,4,0,0,1,4-4h7.93a4,4,0,0,1,4,4v1.32H30.41A1.32,1.32,0,0,0,29.09,41v5.29a1.32,1.32,0,0,0,1.32,1.32H46.28a1.32,1.32,0,0,0,1.32-1.32V41A1.32,1.32,0,0,0,46.28,39.67ZM25.12,5.29H37.68a1.32,1.32,0,0,1,0,2.64H25.12Zm0,10.58h2.64v5.29H25.12ZM9.26,7.93a1.32,1.32,0,0,1,0-2.64H22.48V7.93Zm10.58,7.93h2.64v5.29H19.83ZM15.87,45H2.64V42.31H15.87Zm11.9-13.22H19.83a6.62,6.62,0,0,0-6.61,6.61v1.32H5.29V38.34A14.56,14.56,0,0,1,19.83,23.8h7.93A14.56,14.56,0,0,1,42.31,38.34v1.32H34.38V38.34A6.62,6.62,0,0,0,27.77,31.73ZM45,45H31.73V42.31H45Z"/></g></g></svg>