<svg xmlns="http://www.w3.org/2000/svg" viewBox="0 0 87.38 86.25"><defs><style>.cls-1{fill:none;stroke:#39c;stroke-linecap:round;stroke-linejoin:round;stroke-width:3px;}</style></defs><title>Ресурс 1</title><g id="Слой_2" data-name="Слой 2"><g id="Слой_1-2" data-name="Слой 1"><g id="Слой_2-2" data-name="Слой 2"><g id="Layer_1" data-name="Layer 1"><polygon class="cls-1" points="66 22.5 58.69 1.5 51.38 22.5 51.38 84.75 66 84.75 66 22.5"/><line class="cls-1" x1="85.88" y1="22.5" x2="1.5" y2="22.5"/><line class="cls-1" x1="18.69" y1="30.89" x2="9" y2="30.89"/><rect class="cls-1" x="74.27" y="30.89" width="11.61" height="11.61"/><polygon class="cls-1" points="66 64 66 84.75 51.38 74.38 66 64"/><polygon class="cls-1" points="66 43.25 66 64 51.38 53.63 66 43.25"/><polygon class="cls-1" points="66 22.5 66 43.25 51.38 32.88 66 22.5"/><path class="cls-1" d="M13.85,36.7c0,4.5,3,5.92,4.1,7A5.8,5.8,0,1,1,8,47.77"/></g></g></g></g></svg>